<svg xmlns="http://www.w3.org/2000/svg" xmlns:xlink="http://www.w3.org/1999/xlink" class="d-none"><symbol id="bank" viewBox="0 0 45 45"><g fill-rule="evenodd"><g><circle fill-rule="nonzero" cx="22.5" cy="22.5" r="22.5"/><path d="M11.363 30.054h22.976v2.936H11.363zM23.016 9.007l-12.004 6.244v.737h23.476v-.737zM13.393 26.054v1.902h4.934v-1.902h-1.019v-6.068h1.019v-1.963h-4.934v1.963h.94v6.068zM20.329 26.03v1.902h4.963V26.03h-1.031v-6.067h1.031V18H20.33v1.963h1.05v6.067zM27.354 26.03v1.902H32.323V26.03h-1.007v-6.067h1.007V18h-4.969v1.963h1.067v6.067z"/></g></g></symbol><symbol id="bidirectional" viewBox="0 0 45 45"><g fill-rule="evenodd"><circle fill-rule="nonzero" cx="22.5" cy="22.5" r="22.5"/><path d="M31.525 16.556c0-.6-.475-1.09-1.058-1.09H16.649l2.31-2.422c.41-.422.41-1.11 0-1.555a1.01 1.01 0 0 0-.756-.311c-.28 0-.54.11-.755.31l-4.124 4.29a1.109 1.109 0 0 0 0 1.533l4.145 4.311c.195.2.475.334.756.334.28 0 .54-.112.756-.312.194-.2.324-.488.324-.777 0-.29-.108-.578-.303-.778l-2.396-2.445h13.84a1.08 1.08 0 0 0 1.079-1.088z"/><path d="M26.624 32.978a1 1 0 0 0 .756-.334l4.145-4.31c.41-.423.41-1.112 0-1.534l-4.145-4.267c-.41-.422-1.08-.422-1.512 0-.41.423-.41 1.111 0 1.556l2.332 2.4H14.382c-.583 0-1.058.489-1.058 1.089s.475 1.089 1.058 1.089h13.84l-2.354 2.444c-.194.2-.302.489-.302.778 0 .289.108.555.324.778.194.2.453.31.734.31z"/></g></symbol><symbol id="calculator" viewBox="0 0 45 45"><g fill-rule="evenodd"><circle fill-rule="nonzero" cx="22.5" cy="22.5" r="22.5"/><path d="M17.2 18.38c-.79 0-.79 0-.79-.76v-1.54c0-.76 0-.76.79-.76h9.6c.79 0 .79 0 .79.76v1.54c0 .76 0 .76-.79.76h-9.6zm0 14.62h9.6c2.39 0 3.2-.76 3.2-3.08V16.08c0-2.3-.79-3.08-3.2-3.08h-9.6c-2.39 0-3.2.76-3.2 3.08v13.84c0 2.32.81 3.08 3.2 3.08z" fill-rule="nonzero"/><path d="M26.738 30.467c-.802 0-1.225-.391-1.225-1.194 0-.803.401-1.195 1.225-1.195.823 0 1.225.392 1.225 1.195s-.423 1.194-1.225 1.194zM22.262 30.467c-.803 0-1.225-.391-1.225-1.194 0-.803.401-1.195 1.225-1.195.823 0 1.224.392 1.224 1.195s-.422 1.194-1.224 1.194zM17.786 30.467c-.803 0-1.225-.391-1.225-1.194 0-.803.401-1.195 1.225-1.195.823 0 1.224.392 1.224 1.195s-.401 1.194-1.224 1.194zM26.738 26.513c-.802 0-1.225-.391-1.225-1.194 0-.783.401-1.195 1.225-1.195.823 0 1.225.392 1.225 1.195-.022.803-.423 1.194-1.225 1.194zM22.262 26.513c-.803 0-1.225-.391-1.225-1.194 0-.783.401-1.195 1.225-1.195.823 0 1.224.392 1.224 1.195s-.422 1.194-1.224 1.194zM17.786 26.513c-.803 0-1.225-.391-1.225-1.194 0-.783.401-1.195 1.225-1.195.823 0 1.224.392 1.224 1.195s-.401 1.194-1.224 1.194zM22.262 22.56c-.803 0-1.225-.392-1.225-1.195 0-.783.401-1.194 1.225-1.194.823 0 1.224.39 1.224 1.194 0 .803-.422 1.194-1.224 1.194zM17.786 22.56c-.803 0-1.225-.392-1.225-1.195 0-.783.401-1.194 1.225-1.194.823 0 1.224.39 1.224 1.194 0 .803-.401 1.194-1.224 1.194z" fill-rule="nonzero"/><circle stroke="#FFF6DB" stroke-width="1.5" fill-rule="nonzero" cx="30.5" cy="17.5" r="5.75"/><path d="M30.5 21.582c-.46 0-.833-.397-.833-.886 0-.49.373-.887.834-.887.46 0 .833.397.833.887s-.373.886-.833.886zM31 18.746c0 .355-.166.532-.5.532-.333 0-.5-.177-.5-.532l-.5-3.71c0-.532.334-1.064 1-1.064.668 0 1.001.532 1.001 1.064l-.5 3.71z"/></g></symbol><symbol id="calendar" viewBox="0 0 45 45"><g fill-rule="evenodd"><circle fill-rule="nonzero" cx="22.5" cy="22.5" r="22.5"/><path fill-rule="nonzero" d="M13 16h16.902l.166 14.34H13.99l-1.253-1.924z"/><path d="M25.5 35a8.5 8.5 0 0 0 8.5-8.499c0-4.694-4.072-7.67-8.624-7.575-2.371.05-3.465.778-4.904 1.925-1.44 1.146-2.8 3.328-2.8 5.65 0 1.26.148 2.436.57 3.511 1.148 2.93 3.825 4.984 7.258 4.988z" fill-rule="nonzero"/><path d="M26 34a7 7 0 1 0-7-7.003A7.008 7.008 0 0 0 26 34z" fill-rule="nonzero"/><path d="M26.035 24c1.439 0 1.86.848 1.86 1.62v.092h-.948v-.067c0-.615-.315-.98-.868-.98-.526 0-.86.29-.86.715 0 .265.08.548.237.855l.246.466h1.456v.565H25.93c.061.133.088.307.088.482 0 .548-.316.93-1.027 1.446l.018.033c.22-.133.438-.191.64-.191.36 0 .772.25 1.097.25.254 0 .552-.159.658-.217l.263-.133.333.657-.175.1c-.386.216-.658.307-1.114.307-.588 0-1.044-.324-1.527-.324-.202 0-.412.05-.833.258l-.351-.64c.78-.516 1.07-1.006 1.07-1.48 0-.166-.035-.307-.158-.548h-.86V26.7h.606l-.202-.39c-.131-.258-.237-.524-.237-.823 0-.748.606-1.488 1.816-1.488z" stroke="#FFF" stroke-width=".3"/><path d="M16.367 14.731a.766.766 0 0 1-.777-.753v-3.119c0-.416.349-.753.777-.753.43 0 .777.337.777.753v3.12a.765.765 0 0 1-.777.752zM25.857 14.731a.766.766 0 0 1-.776-.753v-3.119c0-.416.348-.753.776-.753.43 0 .778.337.778.753v3.12a.766.766 0 0 1-.778.752z"/><path d="M18.005 29.38h-.904v-4.062h.668a7.75 7.75 0 0 1 .132-.529h-.8v-3.931h3.363c.29-.243.596-.465.918-.667v-3.666h3.736v2.419c.18-.016.361-.026.544-.03v-2.389h3.304v2.973c.345.137.678.295.997.473v-5.885c0-.979-.82-1.775-1.83-1.775h-.778v1.667c0 .802-.67 1.453-1.498 1.453-.826 0-1.496-.65-1.496-1.453v-1.667h-6.496v1.667c0 .802-.67 1.453-1.498 1.453-.826 0-1.497-.65-1.497-1.453v-1.667h-.779c-1.009 0-1.83.796-1.83 1.775v14.487c0 .979.821 1.775 1.83 1.775h4.31a7.806 7.806 0 0 1-.396-.968zm-.904-12.855h3.736v3.804H17.1v-3.804zm-.544 12.855H14.09a.82.82 0 0 1-.832-.807v-3.255h3.298v4.062zm0-4.591h-3.298v-3.931h3.298v3.931zm0-4.46h-3.298v-3.804h3.298v3.804z" fill-rule="nonzero"/></g></symbol><symbol id="chat" viewBox="0 0 46 46"><g transform="translate(.928 .883)" fill-rule="nonzero"><circle cx="22.5" cy="22.5" r="22.5"/><path d="M24.824 26.774c1.82 0 3.522-.468 4.96-1.263 1.293.749 2.683.725 3.473.608.24-.023.288-.328.096-.445-.79-.491-1.198-1.193-1.437-1.825 1.27-1.334 2.036-3.043 2.036-4.915 0-4.306-4.073-7.817-9.104-7.817-5.031 0-9.104 3.487-9.104 7.817s4.049 7.84 9.08 7.84zm-12.075 3.652c-1.054-1.124-1.677-2.528-1.677-4.073 0-2.223 1.318-4.213 3.33-5.383 1.03 4.19 5.319 7.35 10.422 7.35.36 0 .719-.024 1.054-.048-.958 2.645-3.833 4.588-7.26 4.588-1.509 0-2.922-.375-4.12-1.054-1.078.632-2.228.609-2.899.515-.192-.023-.24-.257-.072-.374a2.996 2.996 0 0 0 1.222-1.521z"/><path d="M28.791 17.2l-4.368 4.303a.725.725 0 0 1-.505.206V22l-.007-.291a.723.723 0 0 1-.507-.215l-2.204-2.25a.697.697 0 0 1 .018-.994.716.716 0 0 1 .496-.198c.196 0 .378.077.514.215l1.699 1.734 3.854-3.795a.715.715 0 0 1 .505-.206c.191 0 .37.073.505.206a.697.697 0 0 1 0 .995z"/></g></symbol><symbol id="click" viewBox="0 0 45 46"><g transform="translate(0 .898)" fill-rule="nonzero"><circle cx="22.5" cy="22.5" r="22.5"/><path d="M19.6 12.102c-.3 0-.543.252-.543.563v3.944c0 .311.243.563.543.563.3 0 .543-.252.543-.563v-3.944a.553.553 0 0 0-.543-.563zM14.383 14.065a.547.547 0 0 0-.46.377.578.578 0 0 0 .138.591l2.172 2.254a.53.53 0 0 0 .529.152.554.554 0 0 0 .386-.405.577.577 0 0 0-.152-.548l-2.171-2.254a.532.532 0 0 0-.442-.167zM24.486 14.338a.524.524 0 0 0-.068.009.536.536 0 0 0-.314.167l-2.171 2.254c-.143.14-.201.35-.153.547a.554.554 0 0 0 .387.406.53.53 0 0 0 .529-.152l2.171-2.254a.578.578 0 0 0 .135-.625.543.543 0 0 0-.516-.352z"/><path d="M18.336 18.678l4.793 12.94L25.02 28l3.673 3.82L31 29.426l-3.681-3.812 3.486-1.963z"/><path d="M12.543 19.426c-.3 0-.543.252-.543.563 0 .311.243.564.543.564h3.8c.3 0 .543-.253.543-.564a.553.553 0 0 0-.543-.563h-3.8zM16.886 22.225a.524.524 0 0 0-.068.009.536.536 0 0 0-.314.167l-2.171 2.254a.577.577 0 0 0-.153.548.554.554 0 0 0 .386.405.53.53 0 0 0 .53-.152l2.171-2.254a.578.578 0 0 0 .135-.625.543.543 0 0 0-.516-.352z"/></g></symbol><symbol id="computer" viewBox="0 0 45 45"><g fill-rule="evenodd"><g><circle fill-rule="nonzero" cx="22.5" cy="22.5" r="22.5"/><path fill-rule="nonzero" d="M13.333 15.833h17.5V27.5h-17.5z"/><path d="M12.44 26.722c0 .18-.04.358-.12.52l-.972 1.969a1.438 1.438 0 0 0 .132 1.494 1.46 1.46 0 0 0 1.185.552h7.06a.49.49 0 0 0 .402-.25 1.152 1.152 0 0 1 1.008-.568h1.98c.384.015.731.236.913.58a.48.48 0 0 0 .402.238H31.5c.459.01.896-.199 1.181-.565.318-.427.37-1.001.137-1.481l-.972-1.974a1.164 1.164 0 0 1-.12-.52v-5.976a.443.443 0 0 0-.229-.387.427.427 0 0 0-.443.019l-.74.49a.444.444 0 0 0-.196.37v3.475c0 .904-.72 1.637-1.607 1.637H15.655c-.888 0-1.607-.733-1.607-1.637v-7.852c0-.089.034-.174.096-.237a.326.326 0 0 1 .233-.099h7.06a.653.653 0 0 0 .646-.659v-.323a.653.653 0 0 0-.647-.655h-7.059c-1.07 0-1.937.883-1.937 1.973v9.866z"/><path d="M32.733 11.125a14.072 14.072 0 0 1-3.333-.82 14.825 14.825 0 0 1-2.178-.998 1.168 1.168 0 0 0-1.11 0c-.688.393-1.411.732-2.162 1.013a14.072 14.072 0 0 1-3.333.82c-.342.029-.607.285-.617.598v6.21c0 1.098.602 2.124 1.606 2.734l3.783 2.299c.774.47 1.782.47 2.555 0l3.784-2.3c1.003-.609 1.605-1.635 1.605-2.734v-6.209c0-.313-.258-.577-.6-.613z" fill-rule="nonzero"/><path d="M29.975 14.547l-3.724 4.35a.572.572 0 0 1-.43.208v.294l-.006-.294a.574.574 0 0 1-.432-.218l-1.88-2.274a.799.799 0 0 1 .016-1.005.563.563 0 0 1 .423-.2c.167 0 .322.077.438.218l1.449 1.753 3.285-3.837a.565.565 0 0 1 .43-.209c.163 0 .316.074.431.209a.8.8 0 0 1 0 1.005z" fill-rule="nonzero"/></g></g></symbol><symbol id="happy" viewBox="0 0 46 46"><g transform="translate(.883 .799)" fill-rule="nonzero"><circle cx="22.5" cy="22.5" r="22.5"/><path d="M22.5 12.201c-5.735 0-10.383 4.649-10.383 10.384 0 5.734 4.648 10.383 10.383 10.383 5.735 0 10.383-4.649 10.383-10.383 0-5.735-4.648-10.384-10.383-10.384z"/><path d="M19.286 19.123a.989.989 0 1 1 0 1.978.989.989 0 0 1 0-1.978zM25.714 19.123a.989.989 0 1 1 0 1.978.989.989 0 0 1 0-1.978zM26.656 25.775a.494.494 0 0 1 .44.811c-.444.594-1.152 1.11-1.97 1.507-.817.397-1.742.672-2.626.672-.884 0-1.81-.275-2.627-.672-.817-.397-1.525-.913-1.97-1.507a.494.494 0 1 1 .788-.594c.297.395.906.868 1.615 1.212.709.345 1.52.572 2.194.572.675 0 1.485-.227 2.194-.572.709-.344 1.318-.817 1.615-1.212a.494.494 0 0 1 .347-.217z"/></g></symbol><symbol id="headphones" viewBox="0 0 45 45"><g transform="translate(-.015)" fill-rule="evenodd"><circle fill-rule="nonzero" cx="22.5" cy="22.5" r="22.5"/><path d="M32.429 22.342v-2.175C32.429 15.104 28.207 11 23 11s-9.429 4.104-9.429 9.167v2.175c-1.932.967-2.934 3.093-2.425 5.147.508 2.054 2.395 3.504 4.568 3.511h.429c.947 0 1.714-.746 1.714-1.667V23.5c0-.92-.767-1.667-1.714-1.667h-.857v-1.666c0-4.142 3.454-7.5 7.714-7.5s7.714 3.358 7.714 7.5v1.666h-.857c-.947 0-1.714.747-1.714 1.667v5.833H25.57V28.5a.845.845 0 0 0-.857-.833H23a.845.845 0 0 0-.857.833v1.667c0 .46.384.833.857.833h7.286c2.173-.007 4.06-1.457 4.568-3.511.509-2.054-.493-4.18-2.425-5.147z"/></g></symbol><symbol id="holiday" viewBox="0 0 45 45"><g fill-rule="evenodd"><circle fill-rule="nonzero" cx="22.5" cy="22.5" r="22.5"/><path d="M22.483 10.445c-3.075 1.437-4.613 2.316-4.613 2.637 0 .322-.108 2.007-.325 5.056l4.938.22h5.485l-.31-3.568c-1.481-1.853-2.222-2.817-2.222-2.892 0-.075-.984-.56-2.953-1.453z" fill-rule="nonzero"/><path d="M22.043 9.8s4.386 1.315 4.386 8.1l6.048.383c0 .384-2.715-8.483-10.434-8.483z"/><path d="M22.957 9.8s-4.387 1.698-4.387 8.483l-5.976-.175S15.238 9.8 22.957 9.8z"/><path d="M22.5 10.7c-.274 0-.457-.183-.457-.458V8.458c0-.275.183-.458.457-.458s.457.183.457.458v1.784c0 .275-.183.458-.457.458z"/><path d="M27.065 18.8h-9.13c-.274 0-.457-.17-.457-.425 0-6.97 4.702-8.458 4.885-8.543a.31.31 0 0 1 .274 0c.183.085 4.885 1.53 4.885 8.543 0 .255-.183.425-.457.425zm-8.674-.85h8.218c-.137-5.44-3.379-6.97-4.109-7.226-.73.255-3.926 1.828-4.109 7.226z" fill-rule="nonzero"/><path d="M32.544 18.8H26.88c-.264 0-.44-.171-.44-.429 0-6.428-3.906-7.714-4.082-7.757a.395.395 0 0 1-.307-.471c.044-.214.22-.343.439-.343 7.99 0 10.448 8.4 10.492 8.486.044.128 0 .257-.088.385a.505.505 0 0 1-.351.129zm-5.224-.857h4.61c-.264-.729-.879-2.1-1.888-3.429-1.537-2.057-3.468-3.3-5.663-3.728 1.273 1.071 2.81 3.171 2.94 7.157z" fill-rule="nonzero"/><path d="M18.12 18.8h-5.664a.403.403 0 0 1-.351-.17c-.088-.086-.132-.257-.088-.385C12.061 18.16 14.52 9.8 22.51 9.8c.22 0 .395.17.44.384a.393.393 0 0 1-.308.47c-.176.042-4.083 1.364-4.083 7.72 0 .255-.175.426-.439.426zm-5.05-.853h4.61c.088-3.967 1.668-6.057 2.941-7.123-2.238.426-4.126 1.663-5.663 3.71a13.597 13.597 0 0 0-1.887 3.413z" fill-rule="nonzero"/><path d="M22.5 27.8c-.274 0-.457-.106-.457-.234v-7.632c0-.128.183-.234.457-.234s.457.106.457.234v7.632c0 .128-.183.234-.457.234z"/><path d="M29.344 34.946a1.74 1.74 0 0 1-1.106-.378 5.096 5.096 0 0 1-.476-.414 1.697 1.697 0 0 0-.363-.27c-.247-.144-.476-.126-.705 0-.114.072-.229.144-.324.234a5.345 5.345 0 0 1-.496.414c-.553.432-1.144.522-1.81.27a1.433 1.433 0 0 1-.401-.234l-.515-.432c-.095-.09-.21-.18-.324-.252-.229-.144-.438-.162-.686-.036-.19.108-.381.252-.534.396-.21.198-.42.378-.686.504-.553.27-1.087.252-1.64-.018a2.996 2.996 0 0 1-.61-.468 3.087 3.087 0 0 0-.476-.378.642.642 0 0 0-.649-.036c-.19.09-.343.234-.495.36-.134.108-.248.216-.381.324-.458.36-.973.504-1.564.36a1.977 1.977 0 0 1-.629-.288 5.345 5.345 0 0 1-.495-.414c-.153-.162-.172-.378-.02-.54.153-.162.4-.162.572-.018.134.108.248.216.363.324a.86.86 0 0 0 .38.198.899.899 0 0 0 .84-.198c.171-.126.324-.27.476-.396.23-.198.477-.36.763-.468a1.407 1.407 0 0 1 1.048.036c.267.108.477.288.668.468.152.126.305.27.457.396.305.234.63.252.972.108.267-.126.439-.342.648-.504.267-.198.515-.396.84-.504.38-.108.724-.09 1.067.09.229.108.438.252.61.432.133.144.305.27.457.396a.9.9 0 0 0 1.03.054c.21-.126.4-.306.572-.468.21-.18.438-.342.686-.45.477-.198.915-.162 1.354.09.266.162.495.36.724.576.152.144.324.288.534.342.324.072.61.018.858-.198.152-.144.324-.252.476-.396a.418.418 0 0 1 .591.018c.153.162.134.396-.038.558-.19.162-.381.324-.572.468-.248.216-.59.342-.991.342zM15.56 31.634c-.4 0-.762-.108-1.086-.342a8.968 8.968 0 0 1-.457-.396c-.172-.162-.172-.396-.038-.54.152-.162.4-.162.59-.018.115.108.23.216.344.306.381.306.82.306 1.2.018.172-.126.344-.27.515-.414.305-.252.63-.468 1.03-.522.267-.054.534 0 .781.108.248.108.439.27.649.432.133.126.286.234.419.36.381.342.896.324 1.277 0 .115-.09.229-.198.343-.306.21-.162.42-.342.668-.45.495-.234.991-.234 1.487.072.247.162.457.36.686.558.152.126.305.27.515.342.305.09.572.036.838-.144.191-.126.344-.27.515-.432.229-.216.496-.378.8-.486a1.369 1.369 0 0 1 1.126.09c.228.108.419.252.61.432.114.108.228.216.343.306.4.342.877.36 1.296.036.153-.126.305-.252.438-.378.191-.162.458-.18.61 0 .153.18.134.414-.076.576l-.457.378c-.667.558-1.659.54-2.269.018-.171-.144-.324-.27-.476-.414a1.808 1.808 0 0 0-.382-.27c-.228-.126-.438-.09-.648.036a2.073 2.073 0 0 0-.324.234c-.171.162-.362.306-.553.45-.534.396-1.125.486-1.754.252a1.502 1.502 0 0 1-.495-.306c-.19-.162-.362-.324-.553-.486a1.433 1.433 0 0 0-.4-.234c-.172-.054-.325-.018-.477.054-.19.09-.343.216-.496.36-.21.216-.457.396-.724.54-.553.27-1.087.252-1.64-.018-.228-.108-.4-.27-.59-.45-.153-.144-.325-.27-.496-.396-.229-.162-.458-.162-.706-.036-.19.108-.343.252-.495.378-.115.09-.229.216-.362.306-.344.252-.706.414-1.125.396z"/></g></symbol><symbol id="home-fund" viewBox="0 0 45 45"><g fill-rule="evenodd"><circle fill-rule="nonzero" cx="22.5" cy="22.5" r="22.5"/><path d="M34.933 20.308l-10.925-8.874a1.42 1.42 0 0 0-2.044 0l-10.898 8.874c-.572.578 2.752 1.074 2.752 1.074v8.488c0 .606.027 1.102.027 1.102h6.948v-5.98h4.468V31h6.948s.027-.496.027-1.102v-8.516c-.027 0 3.27-.496 2.697-1.074z"/><path d="M23.035 15c1.439 0 1.86.848 1.86 1.62v.092h-.948v-.067c0-.615-.315-.98-.868-.98-.526 0-.86.29-.86.715 0 .265.08.548.237.855l.246.466h1.456v.565H22.93c.061.133.088.307.088.482 0 .548-.316.93-1.027 1.446l.018.033c.22-.133.438-.191.64-.191.36 0 .772.25 1.097.25.254 0 .552-.159.658-.217l.263-.133.333.657-.175.1c-.386.216-.658.307-1.114.307-.588 0-1.044-.324-1.527-.324-.202 0-.412.05-.833.258l-.351-.64c.78-.516 1.07-1.006 1.07-1.48 0-.166-.035-.307-.158-.548h-.86V17.7h.606l-.202-.39c-.131-.258-.237-.524-.237-.823 0-.748.606-1.488 1.816-1.488z" stroke="#FFF" stroke-width=".3"/></g></symbol><symbol id="home" viewBox="0 0 46 46"><g transform="translate(.758 .91)" fill-rule="nonzero"><circle cx="22.5" cy="22.5" r="22.5"/><path d="M16 21.159h12v8H16z"/><path d="M21.954 11.251a.483.483 0 0 0-.275.117l-10.266 9a.508.508 0 0 0 .16.854c.165.059.349.022.481-.096L22 12.408l9.946 8.718a.482.482 0 0 0 .482.096.508.508 0 0 0 .16-.854l-10.267-9a.482.482 0 0 0-.367-.117zm4.202 1v1.813l1.955 1.719V12.25h-1.955zm-4.156 1l-7.822 6.75v11.75h15.644v-11.75L22 13.251zm-3.422 8.5h2.933v3h-2.933v-3zm3.91 0h2.934v3H22.49v-3zm-3.91 4h2.933v3h-2.933v-3zm3.91 0h2.934v3H22.49v-3z"/></g></symbol><symbol id="keys" viewBox="0 0 46 46"><g transform="translate(.854 .777)" fill-rule="evenodd"><circle fill-rule="nonzero" cx="22.5" cy="22.5" r="22.5"/><path d="M31.29 10.771a5.342 5.342 0 0 0-3.78-1.548 5.34 5.34 0 0 0-3.779 1.548 5.219 5.219 0 0 0-1.567 3.737l.002.062a4.818 4.818 0 0 0-4.45 1.266 4.692 4.692 0 0 0-1.209 4.676L10.146 26.8l.138 3.003 3.107.205 1.123-1.11v-1.383h1.398l.134-.132v-1.382h1.399l.133-.132v-1.382h1.398l.777-.768c1.624.47 3.449.071 4.73-1.194a4.692 4.692 0 0 0 0-6.69c-.241-.237-.501-.444-.775-.62a3.78 3.78 0 0 1 1.066-3.413 3.869 3.869 0 0 1 2.738-1.121c1.034 0 2.006.398 2.737 1.12a3.789 3.789 0 0 1 1.131 2.707c0 .98-.377 1.96-1.131 2.706-.326.321-.697.57-1.091.752.336.37.62.778.85 1.215a5.328 5.328 0 0 0 1.283-.937 5.247 5.247 0 0 0 0-7.473zm-9.336 7.564c-.501-.494-.501-1.296 0-1.791.146-.145.32-.246.504-.306a5.254 5.254 0 0 0 1.273 2.007c.02.02.043.039.064.059l-.03.032c-.5.494-1.311.494-1.811 0z" fill-rule="nonzero"/><path d="M26.974 17.665a5.96 5.96 0 0 1-1.58 5.762 6.071 6.071 0 0 1-4.295 1.758c-.06 0-.121-.005-.182-.007l-3.3 7.876 1.29 2.722 2.95-.986.608-1.45-.536-1.278 1.292-.53.073-.171-.535-1.278 1.291-.528.073-.172-.535-1.278 1.292-.529.42-1.003a4.778 4.778 0 0 0 3.908-2.892c.96-2.293-.039-4.903-2.234-6.016z"/></g></symbol><symbol id="letter" viewBox="0 0 45 45"><g fill-rule="nonzero"><circle cx="22.5" cy="22.5" r="22.5"/><path d="M17.864 12.42c-1.367 0-2.455 1.117-2.455 2.52v13.44h8.318c.226 0 .41.188.41.42v1.68c0 1.162.796 2.109 1.857 2.327.046.01.089.028.128.053h.333c1.29 0 2.318-1.054 2.318-2.38V14.94c0-1.018.47-1.904 1.167-2.52H17.864z"/><path d="M17.625 16.62a.4.4 0 0 1 .017 0 .399.399 0 0 1 .085 0h3.818a.407.407 0 0 1 .36.208.43.43 0 0 1 0 .424.407.407 0 0 1-.36.208h-3.818a.415.415 0 0 1-.46-.367.421.421 0 0 1 .358-.473zM17.625 19.42a.4.4 0 0 1 .017 0 .399.399 0 0 1 .085 0h8.728a.407.407 0 0 1 .359.208.43.43 0 0 1 0 .424.407.407 0 0 1-.36.208h-8.727a.415.415 0 0 1-.46-.368.421.421 0 0 1 .358-.472zM17.625 22.22a.4.4 0 0 1 .017 0 .399.399 0 0 1 .085 0h8.728a.407.407 0 0 1 .359.208.43.43 0 0 1 0 .424.407.407 0 0 1-.36.208h-8.727a.415.415 0 0 1-.46-.367.421.421 0 0 1 .358-.473zM17.625 25.02a.4.4 0 0 1 .017 0 .399.399 0 0 1 .085 0h3.818a.407.407 0 0 1 .36.208.43.43 0 0 1 0 .424.407.407 0 0 1-.36.208h-3.818a.415.415 0 0 1-.46-.367.421.421 0 0 1 .358-.473z"/><path d="M12.136 29.22v1.26c0 1.326 1.027 2.38 2.319 2.38h9.954c-.651-.59-1.09-1.419-1.09-2.38v-1.26H12.135z"/></g></symbol><symbol id="letting" viewBox="0 0 45 45"><g fill-rule="evenodd"><circle fill-rule="nonzero" cx="22.5" cy="22.5" r="22.5"/><path d="M15.572 12.567l-1.055 1.428a.24.24 0 0 0-.062.168v18.123c0 .147.124.252.248.252h2.131a.254.254 0 0 0 .249-.252V14.142c0-.063-.02-.105-.062-.168l-1.055-1.428c-.083-.126-.29-.126-.394.021z"/><path d="M16.834 32.853h-2.13a.56.56 0 0 1-.56-.567V14.142c0-.126.042-.252.125-.357l1.055-1.428a.547.547 0 0 1 .455-.231c.187 0 .352.084.455.231l1.056 1.428a.576.576 0 0 1 .124.357v18.123a.583.583 0 0 1-.58.588zm-2.068-.63h2.027v-18.06l-1.014-1.344-1.013 1.344v18.06z" fill-rule="nonzero"/><path d="M28.732 27.246h-9.698c-.16 0-.275-.126-.275-.252v-5.712c0-.147.137-.252.275-.252h9.698c.16 0 .275.126.275.252v5.691c.023.147-.115.273-.275.273z"/><path d="M20.372 18.363h1v2.184h-1zM26.207 18.363h1v2.184h-1zM29.849 17.114l-1.21-.863a.202.202 0 0 0-.127-.051H18.235v2.15h10.259a.17.17 0 0 0 .126-.05l1.21-.864c.145-.085.145-.254.019-.322z"/></g></symbol><symbol id="mobile-banking" viewBox="0 0 45 45"><g fill-rule="evenodd"><circle fill-rule="nonzero" cx="22.5" cy="22.5" r="22.5"/><path d="M27.96 15.136V11.72a.727.727 0 0 0-.736-.719h-12.49a.727.727 0 0 0-.734.719V33.28c0 .397.329.719.735.719h12.49a.727.727 0 0 0 .734-.719v-7.018c2.24-.987 3.68-3.167 3.68-5.57 0-2.404-1.44-4.584-3.68-5.571v.014z" fill-rule="nonzero"/><path d="M20.98 32.922a1.09 1.09 0 0 1-1.102-1.078 1.09 1.09 0 0 1 1.102-1.078 1.09 1.09 0 0 1 1.102 1.078 1.09 1.09 0 0 1-1.102 1.078zM26.49 29.688H15.47v-17.25h11.02v2.253a6.505 6.505 0 0 0-1.892-.05c-2.06.257-3.853 1.5-4.786 3.313a5.993 5.993 0 0 0 .132 5.736l-.606 2.562a.354.354 0 0 0 .098.335c.09.088.219.124.342.096l2.671-.59c1.085.58 2.321.83 3.552.72.173 0 .342-.04.507-.069l-.018 2.944z" fill-rule="nonzero"/><path d="M25.035 18c1.439 0 1.86.848 1.86 1.62v.092h-.948v-.067c0-.615-.315-.98-.868-.98-.526 0-.86.29-.86.715 0 .265.08.548.237.855l.246.466h1.456v.565H24.93c.061.133.088.307.088.482 0 .548-.316.93-1.027 1.446l.018.033c.22-.133.438-.191.64-.191.36 0 .772.25 1.097.25.254 0 .552-.159.658-.217l.263-.133.333.657-.175.1c-.386.216-.658.307-1.114.307-.588 0-1.044-.324-1.527-.324-.202 0-.412.05-.833.258l-.351-.64c.78-.516 1.07-1.006 1.07-1.48 0-.166-.035-.307-.158-.548h-.86V20.7h.606l-.202-.39c-.131-.258-.237-.524-.237-.823 0-.748.606-1.488 1.816-1.488z" stroke="#FFF" stroke-width=".3"/></g></symbol><symbol id="payment" viewBox="0 0 45 45"><g fill-rule="evenodd"><g><circle fill-rule="nonzero" cx="22.5" cy="22.5" r="22.5"/><path d="M16.294 21.078c-1.938-.8-3.294-2.66-3.294-4.827C13 13.355 15.422 11 18.401 11c2.98 0 5.401 2.355 5.401 5.25v.095c-3.221.306-5.982 2.143-7.508 4.733z" fill-rule="nonzero"/><path d="M33 26.038C33 30.436 29.337 34 24.818 34s-8.182-3.564-8.182-7.962c0-4.397 3.663-7.961 8.182-7.961 4.52 0 8.182 3.564 8.182 7.961z" fill-rule="nonzero"/><path d="M24.772 22.058c1.896 0 2.45 1.168 2.45 2.233v.126h-1.248v-.092c0-.847-.416-1.351-1.144-1.351-.693 0-1.132.4-1.132.985 0 .366.104.755.312 1.18l.323.64h1.919v.779h-1.618c.08.183.115.424.115.664 0 .756-.416 1.283-1.352 1.993l.023.046c.29-.184.578-.264.844-.264.474 0 1.017.344 1.445.344.335 0 .728-.218.866-.298l.347-.183.44.904-.232.138c-.508.298-.867.423-1.468.423-.774 0-1.375-.446-2.01-.446-.267 0-.544.069-1.099.355l-.462-.882c1.029-.71 1.41-1.385 1.41-2.038 0-.23-.046-.424-.208-.756H22.16v-.779h.798l-.266-.538c-.173-.355-.312-.721-.312-1.134 0-1.03.797-2.05 2.392-2.05z" stroke="#FFF" stroke-width=".5"/></g></g></symbol><symbol id="phone" viewBox="0 0 46 46"><g transform="translate(.863 .801)" fill-rule="evenodd"><circle fill-rule="nonzero" cx="22.5" cy="22.5" r="22.5"/><path d="M30.731 29.666l-1.847-3.093a1.793 1.793 0 0 0-1.135-.836 1.748 1.748 0 0 0-1.378.24l-1.636 1.075-.07.038-.042.03c-1.71 1.113-4.239.196-5.631-2.037-1.328-2.288-1.02-5.06.69-6.182l.043-.028a.36.36 0 0 0 .062-.048l1.645-1.076c.85-.554 1.11-1.723.581-2.611l-1.792-2.957-.073-.115c-.639-.902-1.838-1.136-2.746-.534l-1.679 1.145c-2.444 2.535-2.024 8.122.99 13.398l.434.718c2.746 4.332 6.502 7.03 9.557 7.03a4.6 4.6 0 0 0 1.585-.271l.016.029 1.696-1.11c.911-.59 1.23-1.815.73-2.805z"/></g></symbol><symbol id="pie-chart" viewBox="0 0 45 45"><g fill-rule="evenodd"><circle fill-rule="nonzero" cx="22.5" cy="22.5" r="22.5"/><path d="M31.9 22.55a9.45 9.45 0 1 1-9.45-9.45v9.45h9.45z"/><path d="M34 20.45A9.45 9.45 0 0 0 24.55 11v9.45H34z"/></g></symbol><symbol id="piggy-bank" viewBox="0 0 45 46"><g transform="translate(0 .799)" fill-rule="evenodd"><circle fill-rule="nonzero" cx="22.5" cy="22.5" r="22.5"/><path d="M33.613 21.302a1.456 1.456 0 0 0-.778.043 8.709 8.709 0 0 0-2.863-4.4 3.142 3.142 0 0 1 .512-2.38.631.631 0 0 0-.017-.682.648.648 0 0 0-.63-.276c-1.637.208-2.575.958-3.101 1.643a8.876 8.876 0 0 0-1.918-.311 7.686 7.686 0 0 1-2.567 8.752 7.908 7.908 0 0 1-9.217.273.202.202 0 0 0-.015.084 8.654 8.654 0 0 0 2.934 6.088c.608.52.96 1.274.97 2.07v1.025c0 .315.258.57.576.57h3.508a.574.574 0 0 0 .577-.57v-.884h2.788v.88c0 .314.258.57.577.57h3.52a.574.574 0 0 0 .577-.57v-.782a2.818 2.818 0 0 1 .984-2.156 8.702 8.702 0 0 0 2.812-4.387c.251.083.52.097.779.04a1.484 1.484 0 0 0 1.137-1.46V22.77a1.489 1.489 0 0 0-1.145-1.469z" fill-rule="nonzero"/><path d="M29.296 21.453a.87.87 0 0 1-.804-.53.853.853 0 0 1 .188-.938.878.878 0 0 1 .949-.187.86.86 0 0 1-.333 1.66v-.005z" fill-rule="nonzero"/><path d="M17.444 23.938c3.558 0 6.443-2.851 6.443-6.368 0-3.517-2.883-6.368-6.442-6.369-3.558 0-6.444 2.85-6.445 6.366.003 3.516 2.886 6.367 6.444 6.37z" fill-rule="nonzero"/><path d="M17.544 14c1.798 0 2.324.989 2.324 1.89v.107h-1.184v-.077c0-.718-.395-1.144-1.085-1.144-.658 0-1.075.339-1.075.833 0 .31.099.64.296.999l.307.543h1.82v.66h-1.535c.077.154.11.358.11.562 0 .64-.395 1.085-1.283 1.687l.022.038c.274-.155.548-.223.8-.223.45 0 .965.291 1.371.291.318 0 .69-.184.822-.252l.33-.155.416.766-.22.116c-.482.252-.822.359-1.392.359-.734 0-1.305-.378-1.908-.378-.252 0-.515.058-1.041.3L15 20.176c.976-.601 1.338-1.173 1.338-1.726 0-.194-.044-.359-.198-.64h-1.074v-.659h.756l-.252-.456c-.164-.3-.296-.61-.296-.96 0-.872.757-1.735 2.27-1.735z" stroke="#FFF" stroke-width=".5"/></g></symbol><symbol id="safe" viewBox="0 0 45 45"><g fill-rule="nonzero"><circle cx="22.5" cy="22.5" r="22.5"/><path d="M13 12h19v19H13z"/><path d="M30.802 11H14.13c-1.175.003-2.126.936-2.129 2.09v16.358c.003 1.153.954 2.086 2.13 2.09h.248v1.877a.59.59 0 0 0 .596.585h2.12a.59.59 0 0 0 .596-.585v-1.878h9.552v1.878a.59.59 0 0 0 .596.585h2.12a.59.59 0 0 0 .595-.585v-1.878h.25c1.174-.003 2.126-.936 2.129-2.09V13.09c-.003-1.153-.955-2.086-2.13-2.089zm-17.259 8.577h.884v3.402h-.884v-3.402zm17.845 8.318c0 1.175-.97 2.128-2.168 2.128H15.712c-1.198 0-2.169-.953-2.169-2.128v-1.437h.884v1.437c0 .334.136.654.377.89.24.235.567.367.908.366H29.22c.34.001.667-.13.908-.366.24-.236.376-.556.376-.89V14.642a1.268 1.268 0 0 0-1.284-1.246H15.712a1.268 1.268 0 0 0-1.285 1.246v1.437h-.884v-1.437c0-1.175.971-2.128 2.169-2.128H29.22a2.19 2.19 0 0 1 1.533.623c.407.4.635.94.635 1.505v13.253zm-14.45-6.626a3.31 3.31 0 0 1 2.08-3.063 3.422 3.422 0 0 1 3.68.716 3.266 3.266 0 0 1 .73 3.611 3.376 3.376 0 0 1-3.12 2.042c-.895 0-1.752-.349-2.384-.969a3.275 3.275 0 0 1-.987-2.337zm10.314 3.742v-7.485c0-.191.157-.347.351-.35h1.583c.197 0 .356.157.356.35v7.485c0 .193-.16.35-.356.35h-1.583a.353.353 0 0 1-.351-.35z"/></g></symbol><symbol id="search" viewBox="0 0 45 45"><g fill-rule="evenodd"><g><circle fill-rule="nonzero" cx="22.5" cy="22.5" r="22.5"/><circle fill-rule="nonzero" cx="18.983" cy="19.983" r="6.983"/><ellipse stroke="#1ABCB9" stroke-width="1.5" cx="18.889" cy="20.017" rx="6.884" ry="6.968"/><path d="M15.964 22.457A4.554 4.554 0 0 1 15 19.643c0-.58.107-1.133.305-1.643" stroke="#1ABCB9" stroke-width="1.5" stroke-linecap="round"/><path d="M27.605 26.953a.72.72 0 0 1-1.018.076l-2.737-2.392c-.3-.266-.002-.5.255-.804.262-.303.388-.562.688-.302l2.737 2.391c.3.26.332.721.075 1.03z"/><path d="M33.048 31.51a1.56 1.56 0 0 1-2.213.162l-4.778-4.042a1.607 1.607 0 0 1-.16-2.24 1.56 1.56 0 0 1 2.212-.162l4.778 4.042c.654.57.723 1.578.161 2.24z"/></g></g></symbol><symbol id="stats-increase" viewBox="0 0 46 46"><g transform="translate(.976 .79)" fill-rule="evenodd"><circle fill-rule="nonzero" cx="22.5" cy="22.5" r="22.5"/><path d="M25.822 22.016v8.047c0 .36.35.744.739.744h3.545c.39 0 .634-.384.634-.744V16.78a11.47 11.47 0 0 1-1.152 1.964c-.974 1.331-2.241 2.43-3.766 3.27zM11.461 30.063c0 .36.327.744.717.744h3.545c.389 0 .656-.384.656-.744v-6.016a30.275 30.275 0 0 1-4.918-.457v6.473zM18.74 23.968v6.095c0 .36.24.744.63.744h3.544c.39 0 .744-.384.744-.744v-7.087c-.794.28-1.64.505-2.53.675-.762.146-1.56.251-2.388.317zM22.82 17.671l.108-.132H19.37c-.39 0-.63.375-.63.735v2.144c.143-.052.284-.107.422-.163 1.506-.62 2.736-1.49 3.657-2.584z"/><path d="M30.705 13.09H32.832l-4.797-3.88-4.797 3.88h2.58c-.035.71-.294 3.086-2.16 5.269-1.049 1.227-2.606 2.393-4.918 3.167-1.492.5-3.299.836-5.486.92-.354.013-.717.02-1.091.02h-.144a31.976 31.976 0 0 1-.995-.02s.266.061.737.144a29.226 29.226 0 0 0 4.91.424c.663 0 1.358-.025 2.07-.084 1.616-.135 3.316-.45 4.917-1.066.75-.288 1.477-.642 2.164-1.074 2.357-1.482 4.237-3.882 4.883-7.7z"/></g></symbol><symbol id="tick-triple" viewBox="0 0 45 45"><g fill-rule="nonzero"><circle cx="22.5" cy="22.5" r="22.5"/><ellipse cx="9.5" cy="22.5" rx="3.6" ry="2.7"/><path d="M9.5 18A4.505 4.505 0 0 0 5 22.5C5 24.981 7.019 27 9.5 27s4.5-2.019 4.5-4.5S11.981 18 9.5 18zm2.494 3.583L9.12 24.457a.473.473 0 0 1-.332.138v.194l-.004-.194a.472.472 0 0 1-.334-.144L7 22.948a.47.47 0 0 1 .676-.652l1.118 1.158 2.536-2.535a.467.467 0 0 1 .664 0 .47.47 0 0 1 0 .664z"/><ellipse cx="22.5" cy="22.5" rx="3.6" ry="2.7"/><path d="M22.5 18a4.505 4.505 0 0 0-4.5 4.5c0 2.481 2.019 4.5 4.5 4.5s4.5-2.019 4.5-4.5-2.019-4.5-4.5-4.5zm2.494 3.583l-2.874 2.874a.473.473 0 0 1-.332.138v.194l-.004-.194a.472.472 0 0 1-.334-.144L20 22.948a.47.47 0 0 1 .676-.652l1.118 1.158 2.536-2.535a.467.467 0 0 1 .664 0 .47.47 0 0 1 0 .664z"/><ellipse cx="35.5" cy="22.5" rx="3.6" ry="2.7"/><path d="M35.5 18a4.505 4.505 0 0 0-4.5 4.5c0 2.481 2.019 4.5 4.5 4.5s4.5-2.019 4.5-4.5-2.019-4.5-4.5-4.5zm2.494 3.583l-2.874 2.874a.473.473 0 0 1-.332.138v.194l-.004-.194a.472.472 0 0 1-.334-.144L33 22.948a.47.47 0 0 1 .676-.652l1.118 1.158 2.536-2.535a.467.467 0 0 1 .664 0 .47.47 0 0 1 0 .664z"/></g></symbol><symbol id="tick" viewBox="0 0 45 45"><g fill-rule="evenodd"><g fill-rule="nonzero"><circle cx="22.5" cy="22.5" r="22.5"/><ellipse cx="23" cy="22.5" rx="8" ry="5.5"/><path d="M22.417 12C16.673 12 12 16.673 12 22.417c0 5.743 4.673 10.416 10.417 10.416 5.743 0 10.416-4.673 10.416-10.416C32.833 16.673 28.16 12 22.417 12zm5.774 8.294l-6.653 6.653a1.096 1.096 0 0 1-.77.319v.45l-.01-.45a1.093 1.093 0 0 1-.772-.333l-3.357-3.478a1.089 1.089 0 0 1 1.566-1.511l2.587 2.681 5.87-5.87a1.08 1.08 0 0 1 .77-.318 1.09 1.09 0 0 1 .769 1.857z"/></g></g></symbol><symbol id="user-secure" viewBox="0 0 45 45"><g fill-rule="evenodd"><circle fill-rule="nonzero" cx="22.5" cy="22.5" r="22.5"/><path d="M26.714 29.02V31H11v-1.98c0-1.828 2.464-3.362 5.808-3.817.152-.284.239-.601.239-.937 0-.302-.09-.584-.217-.85-1.135-.78-1.901-2.181-1.901-3.796 0-2.46 1.758-4.453 3.928-4.453s3.929 1.993 3.929 4.453c0 1.615-.766 3.016-1.902 3.797a1.956 1.956 0 0 0-.216.85c0 .335.087.652.239.936 3.343.455 5.807 1.99 5.807 3.818z"/><path d="M33 21.5c0 .583-.469 1.056-1.048 1.056h-6.285a1.052 1.052 0 0 1-1.048-1.056v-4.222c0-.583.47-1.056 1.048-1.056v-1.055c0-1.75 1.407-3.167 3.143-3.167 1.735 0 3.142 1.418 3.142 3.167v1.055c.579 0 1.048.473 1.048 1.056V21.5zm-4.19-3.167c-.58 0-1.048.473-1.048 1.056 0 .583.469 1.055 1.048 1.055.578 0 1.047-.472 1.047-1.055s-.469-1.056-1.047-1.056zm0-5.277a2.106 2.106 0 0 0-2.096 2.11v1.056h4.19v-1.055c0-1.164-.94-2.111-2.094-2.111z" fill-rule="nonzero"/></g></symbol><symbol id="write" viewBox="0 0 45 45"><g fill-rule="evenodd"><circle fill-rule="nonzero" cx="22.5" cy="22.5" r="22.5"/><path d="M16.06 29.92a.432.432 0 0 0-.625 0l-1.144-1.185a.47.47 0 0 0 0-.648.432.432 0 0 0-.625 0l-2.654 2.75a.468.468 0 0 0-.118.429.45.45 0 0 0 .291.329l2.654.916a.438.438 0 0 0 .453-.11l1.77-1.833a.47.47 0 0 0-.002-.648z"/><path d="M14.421 22.183v.084a8.115 8.115 0 0 1-1.672 4.94.471.471 0 0 0 .032.61l3.539 3.667a.433.433 0 0 0 .558.057l.62-.428a7.42 7.42 0 0 1 4.233-1.329h.026l-7.336-7.6zM32.045 12.774l-1.392-1.441a2.194 2.194 0 0 0-2.875-.226L15.42 21.117l7.617 7.894 9.229-13.261a2.34 2.34 0 0 0-.22-2.976z"/><circle fill-rule="nonzero" cx="26.5" cy="27.5" r="6.5"/><circle fill-rule="nonzero" cx="26.563" cy="27.625" r="3"/><path d="M26.5 22.625a4.875 4.875 0 1 0 0 9.75 4.875 4.875 0 1 0 0-9.75zm1.67 5.846c.25.234.336.512.079.772-.257.261-.533.182-.773-.065l-.992-1.02c-.349.371-.653.699-.962 1.022-.237.25-.517.322-.771.06-.255-.26-.164-.537.083-.771l1.074-1.021c-.382-.324-.727-.606-1.06-.902-.266-.238-.366-.532-.078-.804.267-.252.542-.149.773.097l.96 1.029c.38-.407.683-.737.993-1.062.225-.236.495-.294.739-.063.264.252.199.532-.05.772-.323.31-.651.615-1.05.992.383.355.71.658 1.035.964z" fill-rule="nonzero"/></g></symbol></svg>