<?xml version="1.0" encoding="UTF-8"?>
<svg width="45px" height="45px" viewBox="0 0 45 45" version="1.1" xmlns="http://www.w3.org/2000/svg" xmlns:xlink="http://www.w3.org/1999/xlink">
    <!-- Generator: Sketch 54.1 (76490) - https://sketchapp.com -->
    <title>Group 3</title>
    <desc>Created with Sketch.</desc>
    <g id="Page-1" stroke="none" stroke-width="1" fill="none" fill-rule="evenodd">
        <g id="Artboard" transform="translate(-8.000000, -9.000000)">
            <g id="Group-3" transform="translate(8.000000, 9.000000)">
                <g id="Group-5">
                    <circle id="svg-light" fill="#FFE1DC" fill-rule="nonzero" cx="22.5" cy="22.5" r="22.5"></circle>
                    <polygon id="svg-mid" fill="#EE3124" points="11.3626912 30.0541992 34.3390706 30.0541992 34.3390706 32.989502 11.3626912 32.989502"></polygon>
                    <polygon id="svg-mid" fill="#EE3124" points="23.0159628 9.00725806 11.0115244 15.2506452 11.0115244 15.9881592 34.4884756 15.9881592 34.4884756 15.2506452"></polygon>
                    <polygon id="svg-mid" fill="#EE3124" points="13.3929036 26.0537109 13.3929036 27.9555108 13.9351524 27.9555108 17.4218293 27.9555108 18.3267415 27.9555108 18.3267415 26.0537109 17.3080037 26.0537109 17.3080037 19.9862671 18.3267415 19.9862671 18.3267415 18.0234375 17.4218293 18.0234375 13.9351524 18.0234375 13.3929036 18.0234375 13.3929036 19.9862671 14.3333333 19.9862671 14.3333333 26.0537109"></polygon>
                    <polygon id="svg-mid" fill="#EE3124" points="20.3286947 26.0302734 20.3286947 27.9320733 21.5422488 27.9320733 25.0289256 27.9320733 25.2922567 27.9320733 25.2922567 26.0302734 24.2608236 26.0302734 24.2608236 19.9628296 25.2922567 19.9628296 25.2922567 18 25.0289256 18 21.5422488 18 20.3286947 18 20.3286947 19.9628296 21.3784383 19.9628296 21.3784383 26.0302734"></polygon>
                    <polygon id="svg-mid" fill="#EE3124" points="27.3538411 26.0302734 27.3538411 27.9320733 28.5422488 27.9320733 32.0289256 27.9320733 32.3233846 27.9320733 32.3233846 26.0302734 31.3156942 26.0302734 31.3156942 19.9628296 32.3233846 19.9628296 32.3233846 18 32.0289256 18 28.5422488 18 27.3538411 18 27.3538411 19.9628296 28.421346 19.9628296 28.421346 26.0302734"></polygon>
                </g>
                <g id="noun_Bank_738675" transform="translate(11.000000, 9.000000)">
                    <g id="Group"></g>
                </g>
            </g>
        </g>
    </g>
</svg>