<?xml version="1.0" encoding="UTF-8"?>
<svg width="45px" height="45px" viewBox="0 0 45 45" version="1.1" xmlns="http://www.w3.org/2000/svg" xmlns:xlink="http://www.w3.org/1999/xlink">
    <!-- Generator: Sketch 54.1 (76490) - https://sketchapp.com -->
    <title>Group 27</title>
    <desc>Created with Sketch.</desc>
    <g id="Page-1" stroke="none" stroke-width="1" fill="none" fill-rule="evenodd">
        <g id="Artboard" transform="translate(-221.000000, -115.000000)">
            <g id="Group-46" transform="translate(221.000000, 115.000000)">
                <g id="Group-27">
                    <circle id="svg-light" fill-opacity="0.151755" fill="#FFC312" fill-rule="nonzero" cx="22.5" cy="22.5" r="22.5"></circle>
                    <path d="M31.525,16.5555556 C31.525,15.9555556 31.05,15.4666667 30.4670455,15.4666667 L16.6488636,15.4666667 L18.9590909,13.0444444 C19.3693182,12.6222222 19.3693182,11.9333333 18.9590909,11.4888889 C18.7431818,11.2666667 18.4840909,11.1777778 18.2034091,11.1777778 C17.9227273,11.1777778 17.6636364,11.2888889 17.4477273,11.4888889 L13.3238636,15.7777778 C12.9136364,16.2 12.9136364,16.8888889 13.3238636,17.3111111 L17.4693182,21.6222222 C17.6636364,21.8222222 17.9443182,21.9555556 18.225,21.9555556 C18.5056818,21.9555556 18.7647727,21.8444444 18.9806818,21.6444444 C19.175,21.4444444 19.3045455,21.1555556 19.3045455,20.8666667 C19.3045455,20.5777778 19.1965909,20.2888889 19.0022727,20.0888889 L16.6056818,17.6444444 L30.4454545,17.6444444 C31.05,17.6444444 31.525,17.1555556 31.525,16.5555556 Z" id="svg-mid" fill="#FFC312"></path>
                    <path d="M26.6238636,32.9777778 C26.9045455,32.9777778 27.1852273,32.8666667 27.3795455,32.6444444 L31.525,28.3333333 C31.9352273,27.9111111 31.9352273,27.2222222 31.525,26.8 L27.3795455,22.5333333 C26.9693182,22.1111111 26.3,22.1111111 25.8681818,22.5333333 C25.4579545,22.9555556 25.4579545,23.6444444 25.8681818,24.0888889 L28.2,26.4888889 L14.3818182,26.4888889 C13.7988636,26.4888889 13.3238636,26.9777778 13.3238636,27.5777778 C13.3238636,28.1777778 13.7988636,28.6666667 14.3818182,28.6666667 L28.2215909,28.6666667 L25.8681818,31.1111111 C25.6738636,31.3111111 25.5659091,31.6 25.5659091,31.8888889 C25.5659091,32.1777778 25.6738636,32.4444444 25.8897727,32.6666667 C26.0840909,32.8666667 26.3431818,32.9777778 26.6238636,32.9777778 Z" id="svg-dark" fill="#D9A200"></path>
                </g>
            </g>
        </g>
    </g>
</svg>