<?xml version="1.0" encoding="UTF-8"?>
<svg width="45px" height="45px" viewBox="0 0 45 45" version="1.1" xmlns="http://www.w3.org/2000/svg" xmlns:xlink="http://www.w3.org/1999/xlink">
    <!-- Generator: Sketch 54.1 (76490) - https://sketchapp.com -->
    <title>Group 26</title>
    <desc>Created with Sketch.</desc>
    <g id="Page-1" stroke="none" stroke-width="1" fill="none" fill-rule="evenodd">
        <g id="Artboard" transform="translate(-168.000000, -115.000000)">
            <g id="Group-41" transform="translate(168.000000, 115.000000)">
                <g id="Group-26">
                    <circle id="svg-light" fill-opacity="0.151755" fill="#FFC312" fill-rule="nonzero" cx="22.5" cy="22.5" r="22.5"></circle>
                    <path d="M17.2,18.38 C16.4103896,18.38 16.4103896,18.38 16.4103896,17.62 L16.4103896,16.08 C16.4103896,15.32 16.4103896,15.32 17.2,15.32 L26.8,15.32 C27.5896104,15.32 27.5896104,15.32 27.5896104,16.08 L27.5896104,17.62 C27.5896104,18.38 27.5896104,18.38 26.8,18.38 L17.2,18.38 Z M17.2,33 L26.8,33 C29.1896104,33 30,32.24 30,29.92 L30,16.08 C30,13.78 29.2103896,13 26.8,13 L17.2,13 C14.8103896,13 14,13.76 14,16.08 L14,29.92 C14,32.24 14.8103896,33 17.2,33 Z" id="svg-dark" fill="#D9A200" fill-rule="nonzero"></path>
                    <path d="M26.7378894,30.4671519 C25.9355544,30.4671519 25.5132728,30.0758799 25.5132728,29.2727425 C25.5132728,28.4696052 25.9144403,28.0783332 26.7378894,28.0783332 C27.5613384,28.0783332 27.9625059,28.4696052 27.9625059,29.2727425 C27.9625059,30.0758799 27.5402244,30.4671519 26.7378894,30.4671519 Z" id="svg-white" fill="#FFFFFF" fill-rule="nonzero"></path>
                    <path d="M22.2617047,30.4671519 C21.4593697,30.4671519 21.0370881,30.0758799 21.0370881,29.2727425 C21.0370881,28.4696052 21.4382556,28.0783332 22.2617047,28.0783332 C23.0851537,28.0783332 23.4863212,28.4696052 23.4863212,29.2727425 C23.4863212,30.0758799 23.0640397,30.4671519 22.2617047,30.4671519 Z" id="svg-white" fill="#FFFFFF" fill-rule="nonzero"></path>
                    <path d="M17.78552,30.4671519 C16.983185,30.4671519 16.5609034,30.0758799 16.5609034,29.2727425 C16.5609034,28.4696052 16.9620709,28.0783332 17.78552,28.0783332 C18.608969,28.0783332 19.0101365,28.4696052 19.0101365,29.2727425 C19.0101365,30.0758799 18.608969,30.4671519 17.78552,30.4671519 Z" id="svg-white" fill="#FFFFFF" fill-rule="nonzero"></path>
                    <path d="M26.7378894,26.513245 C25.9355544,26.513245 25.5132728,26.121973 25.5132728,25.3188357 C25.5132728,24.5362916 25.9144403,24.1244263 26.7378894,24.1244263 C27.5613384,24.1244263 27.9625059,24.5156983 27.9625059,25.3188357 C27.9413919,26.121973 27.5402244,26.513245 26.7378894,26.513245 Z" id="svg-white" fill="#FFFFFF" fill-rule="nonzero"></path>
                    <path d="M22.2617047,26.513245 C21.4593697,26.513245 21.0370881,26.121973 21.0370881,25.3188357 C21.0370881,24.5362916 21.4382556,24.1244263 22.2617047,24.1244263 C23.0851537,24.1244263 23.4863212,24.5156983 23.4863212,25.3188357 C23.4863212,26.121973 23.0640397,26.513245 22.2617047,26.513245 Z" id="svg-white" fill="#FFFFFF" fill-rule="nonzero"></path>
                    <path d="M17.78552,26.513245 C16.983185,26.513245 16.5609034,26.121973 16.5609034,25.3188357 C16.5609034,24.5362916 16.9620709,24.1244263 17.78552,24.1244263 C18.608969,24.1244263 19.0101365,24.5156983 19.0101365,25.3188357 C19.0101365,26.121973 18.608969,26.513245 17.78552,26.513245 Z" id="svg-white" fill="#FFFFFF" fill-rule="nonzero"></path>
                    <path d="M22.2617047,22.5593382 C21.4593697,22.5593382 21.0370881,22.1680662 21.0370881,21.3649288 C21.0370881,20.5823848 21.4382556,20.1705195 22.2617047,20.1705195 C23.0851537,20.1705195 23.4863212,20.5617915 23.4863212,21.3649288 C23.4863212,22.1680662 23.0640397,22.5593382 22.2617047,22.5593382 Z" id="svg-white" fill="#FFFFFF" fill-rule="nonzero"></path>
                    <path d="M17.78552,22.5593382 C16.983185,22.5593382 16.5609034,22.1680662 16.5609034,21.3649288 C16.5609034,20.5823848 16.9620709,20.1705195 17.78552,20.1705195 C18.608969,20.1705195 19.0101365,20.5617915 19.0101365,21.3649288 C19.0101365,22.1680662 18.608969,22.5593382 17.78552,22.5593382 Z" id="svg-white" fill="#FFFFFF" fill-rule="nonzero"></path>
                    <circle id="svg-light" stroke="#FFF6DB" stroke-width="1.5" fill="#FFC312" fill-rule="nonzero" cx="30.5" cy="17.5" r="5.75"></circle>
                    <path d="M30.5006124,21.5817902 C30.0401793,21.5817902 29.6667966,21.1851452 29.6667966,20.6956306 C29.6667966,20.206116 30.0401793,19.809471 30.5006124,19.809471 C30.9612122,19.809471 31.3344282,20.206116 31.3344282,20.6956306 C31.3344282,21.1851452 30.9612122,21.5817902 30.5006124,21.5817902 Z" id="svg-white" fill="#FFFFFF"></path>
                    <path d="M31.0009019,18.7460795 C31.0009019,19.1005433 30.8341387,19.2777753 30.5006124,19.2777753 C30.1670861,19.2777753 30.000323,19.1005433 30.000323,18.7460795 L29.5000335,15.0355835 C29.5000335,14.5038877 29.8335598,13.972192 30.5006124,13.972192 C31.167665,13.972192 31.5011913,14.5038877 31.5011913,15.0355835 L31.0009019,18.7460795 Z" id="svg-white" fill="#FFFFFF"></path>
                </g>
            </g>
        </g>
    </g>
</svg>