<?xml version="1.0" encoding="UTF-8"?>
<svg width="45px" height="45px" viewBox="0 0 45 45" version="1.1" xmlns="http://www.w3.org/2000/svg" xmlns:xlink="http://www.w3.org/1999/xlink">
    <!-- Generator: Sketch 54.1 (76490) - https://sketchapp.com -->
    <title>Group 35</title>
    <desc>Created with Sketch.</desc>
    <g id="Page-1" stroke="none" stroke-width="1" fill="none" fill-rule="evenodd">
        <g id="Artboard" transform="translate(-61.000000, -115.000000)">
            <g id="Group-35" transform="translate(61.000000, 115.000000)">
                <g id="Group-24">
                    <circle id="svg-light" fill="#FFF6DB" fill-rule="nonzero" cx="22.5" cy="22.5" r="22.5"></circle>
                    <polygon id="svg-white" fill="#FFFFFF" fill-rule="nonzero" points="13 16 29.9019165 16 30.067749 30.3391724 13.9910889 30.3391724 12.7384033 28.4164429"></polygon>
                    <path d="M25.5000003,35 C30.1940045,34.9999997 33.9994116,31.1950695 34,26.5010656 C34.0005884,21.8070616 29.9281006,18.8302002 25.3759155,18.9260864 C23.0047617,18.9760319 21.9110107,19.7043457 20.4718628,20.8508301 C19.0327148,21.9973145 17.6727487,24.1787562 17.671875,26.5010656 C17.6728214,27.761334 17.8195664,28.9371118 18.2412109,30.0123901 C19.3898503,32.9416514 22.0667923,34.9961304 25.5000003,35 Z" id="svg-light" fill="#FFF6DB" fill-rule="nonzero"></path>
                    <path d="M26,34 C29.8656508,33.9999997 32.9995154,30.8665279 33,27.0008775 C33.0004846,23.1352272 29.8674057,20.0009697 26.0017553,20.0000002 C22.1361049,19.9990308 19.0014543,23.1317164 19,26.9973664 C19.0029026,30.8625832 22.1347847,33.9956435 26,34 Z" id="svg-mid" fill="#FFC312" fill-rule="nonzero"></path>
                    <path d="M26.0350877,24 C27.4736842,24 27.8947368,24.8476454 27.8947368,25.6204986 L27.8947368,25.7119114 L26.9473684,25.7119114 L26.9473684,25.6454294 C26.9473684,25.0304709 26.6315789,24.6648199 26.0789474,24.6648199 C25.5526316,24.6648199 25.2192982,24.9556787 25.2192982,25.3795014 C25.2192982,25.6454294 25.2982456,25.9279778 25.4561404,26.2354571 L25.7017544,26.700831 L27.1578947,26.700831 L27.1578947,27.265928 L25.9298246,27.265928 C25.9912281,27.398892 26.0175439,27.5734072 26.0175439,27.7479224 C26.0175439,28.2963989 25.7017544,28.6786704 24.9912281,29.1939058 L25.0087719,29.2271468 C25.2280702,29.0941828 25.4473684,29.0360111 25.6491228,29.0360111 C26.0087719,29.0360111 26.4210526,29.2853186 26.745614,29.2853186 C27,29.2853186 27.2982456,29.1274238 27.4035088,29.0692521 L27.6666667,28.9362881 L28,29.5927978 L27.8245614,29.6925208 C27.4385965,29.9085873 27.1666667,30 26.7105263,30 C26.122807,30 25.6666667,29.6759003 25.1842105,29.6759003 C24.9824561,29.6759003 24.7719298,29.7257618 24.3508772,29.933518 L24,29.2936288 C24.7807018,28.7783934 25.0701754,28.2880886 25.0701754,27.8144044 C25.0701754,27.6481994 25.0350877,27.5069252 24.9122807,27.265928 L24.0526316,27.265928 L24.0526316,26.700831 L24.6578947,26.700831 L24.4561404,26.3102493 C24.3245614,26.0526316 24.2192982,25.7867036 24.2192982,25.4875346 C24.2192982,24.7396122 24.8245614,24 26.0350877,24 Z" id="svg-white" stroke="#FFFFFF" stroke-width="0.3" fill="#FFFFFF"></path>
                    <path d="M16.3671429,14.7313494 C15.9385714,14.7313494 15.5902857,14.3941084 15.5902857,13.9778916 L15.5902857,10.8590361 C15.5902857,10.4428193 15.9385714,10.1055783 16.3671429,10.1055783 C16.7962857,10.1055783 17.144,10.4428193 17.144,10.8590361 L17.144,13.9781687 C17.1437143,14.3941084 16.7962857,14.7313494 16.3671429,14.7313494 Z" id="svg-mid" fill="#FFC312"></path>
                    <path d="M25.8574286,14.7313494 C25.4294286,14.7313494 25.0811429,14.3941084 25.0811429,13.9778916 L25.0811429,10.8590361 C25.0811429,10.4428193 25.4294286,10.1055783 25.8574286,10.1055783 C26.2865714,10.1055783 26.6345714,10.4428193 26.6345714,10.8590361 L26.6345714,13.9781687 C26.6345714,14.3941084 26.2865714,14.7313494 25.8574286,14.7313494 Z" id="svg-mid" fill="#FFC312"></path>
                    <path d="M18.0054286,29.3798554 L17.1014286,29.3798554 L17.1014286,25.3177229 L17.7688571,25.3177229 C17.8062857,25.1381566 17.8514286,24.962747 17.9005714,24.789 L17.1014286,24.789 L17.1014286,20.8576627 L20.4642857,20.8576627 C20.754,20.6151928 21.0597143,20.3926747 21.3817143,20.1909398 L21.3817143,16.5247952 L25.1182857,16.5247952 L25.1182857,18.9436747 C25.2974286,18.9278795 25.4794286,18.9181807 25.6622857,18.9145783 L25.6622857,16.5250723 L28.9657143,16.5250723 L28.9657143,19.4984458 C29.3111429,19.6347831 29.6437143,19.793012 29.9634286,19.9714699 L29.9634286,14.0856867 C29.9634286,13.1072169 29.1425714,12.3105301 28.1337143,12.3105301 L27.3551429,12.3105301 L27.3551429,13.9781687 C27.3551429,14.7803976 26.6845714,15.4307711 25.8574286,15.4307711 C25.0305714,15.4307711 24.3605714,14.7801205 24.3605714,13.9781687 L24.3605714,12.3105301 L17.8648571,12.3105301 L17.8648571,13.9781687 C17.8648571,14.7803976 17.1945714,15.4307711 16.3671429,15.4307711 C15.5405714,15.4307711 14.87,14.7801205 14.87,13.9781687 L14.87,12.3105301 L14.0914286,12.3105301 C13.082,12.3105301 12.2617143,13.1072169 12.2617143,14.0856867 L12.2617143,28.5726386 C12.2617143,29.5516627 13.082,30.3483494 14.0914286,30.3483494 L18.4011429,30.3483494 C18.2482857,30.0357711 18.116,29.7126627 18.0054286,29.3798554 Z M17.1014286,16.5245181 L20.8368571,16.5245181 L20.8368571,20.3292169 L17.1014286,20.3292169 L17.1014286,16.5245181 Z M16.5568571,29.3798554 L14.0914286,29.3798554 C13.6328571,29.3798554 13.2594286,29.0176747 13.2594286,28.5729157 L13.2594286,25.3177229 L16.5568571,25.3177229 L16.5568571,29.3798554 Z M16.5568571,24.789 L13.2594286,24.789 L13.2594286,20.8576627 L16.5568571,20.8576627 L16.5568571,24.789 L16.5568571,24.789 Z M16.5568571,20.3292169 L13.2594286,20.3292169 L13.2594286,16.5245181 L16.5568571,16.5245181 L16.5568571,20.3292169 L16.5568571,20.3292169 Z" id="svg-dark" fill="#D9A200" fill-rule="nonzero"></path>
                </g>
            </g>
        </g>
    </g>
</svg>