<?xml version="1.0" encoding="UTF-8"?>
<svg width="46px" height="46px" viewBox="0 0 46 46" version="1.1" xmlns="http://www.w3.org/2000/svg" xmlns:xlink="http://www.w3.org/1999/xlink">
    <!-- Generator: Sketch 54.1 (76490) - https://sketchapp.com -->
    <title>Group 31</title>
    <desc>Created with Sketch.</desc>
    <g id="Page-1" stroke="none" stroke-width="1" fill="none" fill-rule="evenodd">
        <g id="Artboard" transform="translate(-114.000000, -169.000000)" fill-rule="nonzero">
            <g id="Group-40" transform="translate(114.000000, 169.000000)">
                <g id="Group-31" transform="translate(0.928125, 0.882979)">
                    <circle id="svg-light" fill-opacity="0.125575" fill="#27AE27" cx="22.5" cy="22.5" r="22.5"></circle>
                    <path d="M24.8239583,26.7744681 C26.6447917,26.7744681 28.3458333,26.306383 29.7833333,25.5106383 C31.0770833,26.2595745 32.4666667,26.2361702 33.2572917,26.1191489 C33.496875,26.0957447 33.5447917,25.7914894 33.353125,25.6744681 C32.5625,25.1829787 32.1552083,24.4808511 31.915625,23.8489362 C33.1854167,22.5148936 33.9520833,20.806383 33.9520833,18.9340426 C33.9520833,14.6276596 29.8791667,11.1170213 24.8479167,11.1170213 C19.8166667,11.1170213 15.74375,14.6042553 15.74375,18.9340426 C15.74375,23.2638298 19.7927083,26.7744681 24.8239583,26.7744681 Z M12.7489583,30.4255319 C11.6947917,29.3021277 11.071875,27.8978723 11.071875,26.3531915 C11.071875,24.1297872 12.3895833,22.1404255 14.4020833,20.9702128 C15.4322917,25.1595745 19.7208333,28.3191489 24.8239583,28.3191489 C25.1833333,28.3191489 25.5427083,28.2957447 25.878125,28.2723404 C24.9197917,30.9170213 22.0447917,32.8595745 18.61875,32.8595745 C17.109375,32.8595745 15.6958333,32.4851064 14.4979167,31.806383 C13.4197917,32.4382979 12.2697917,32.4148936 11.5989583,32.3212766 C11.4072917,32.2978723 11.359375,32.0638298 11.5270833,31.9468085 C12.1979167,31.5255319 12.5572917,30.9404255 12.7489583,30.4255319 Z" id="svg-dark" fill="#23A423"></path>
                    <path d="M28.7911336,17.2009029 L24.4229623,21.5026578 C24.2900154,21.6335833 24.105753,21.7087308 23.9177936,21.7087308 L23.9177936,22 L23.9114346,21.7087308 C23.7209612,21.7071288 23.5359594,21.6287774 23.4037519,21.4937741 L21.1999978,19.244302 C20.926414,18.9651205 20.9345476,18.5190417 21.2180395,18.2496177 C21.3518738,18.1223331 21.5280025,18.0524285 21.7138916,18.0524285 C21.909541,18.0524285 22.0921766,18.128741 22.2280812,18.2673851 L23.9269623,20.0014563 L27.7810919,16.206073 C27.9159613,16.0732542 28.0953436,16 28.2862607,16 C28.4770299,16 28.6564121,16.0731086 28.7912815,16.2059273 C29.0695975,16.4803029 29.0695975,16.926673 28.7911336,17.2009029 Z" id="svg-white" fill="#FFFFFF"></path>
                </g>
            </g>
        </g>
    </g>
</svg>