<?xml version="1.0" encoding="UTF-8"?>
<svg width="45px" height="46px" viewBox="0 0 45 46" version="1.1" xmlns="http://www.w3.org/2000/svg" xmlns:xlink="http://www.w3.org/1999/xlink">
    <!-- Generator: Sketch 54.1 (76490) - https://sketchapp.com -->
    <title>Group 6</title>
    <desc>Created with Sketch.</desc>
    <g id="Page-1" stroke="none" stroke-width="1" fill="none" fill-rule="evenodd">
        <g id="Artboard" transform="translate(-61.000000, -8.000000)" fill-rule="nonzero">
            <g id="Group-38" transform="translate(61.000000, 8.000000)">
                <g id="Group-6" transform="translate(0.000000, 0.897975)">
                    <circle id="svg-light" fill-opacity="0.705273" fill="#FFD5CD" cx="22.5" cy="22.5" r="22.5"></circle>
                    <path d="M19.6,12.1020254 C19.30018,12.1020254 19.0571429,12.3542507 19.0571429,12.6654056 L19.0571429,16.6090676 C19.0571429,16.9201944 19.30018,17.1724479 19.6,17.1724479 C19.89982,17.1724479 20.1428571,16.9201944 20.1428571,16.6090676 L20.1428571,12.6654056 C20.1428571,12.3542507 19.89982,12.1020254 19.6,12.1020254 Z" id="svg-dark" fill="#B30000"></path>
                    <path d="M14.3834686,14.0650535 C14.1721638,14.0864055 13.9922388,14.2336226 13.9229225,14.4418786 C13.8536061,14.6501345 13.907618,14.8812143 14.0611743,15.0333634 L16.2326029,17.2868845 C16.3695395,17.4333 16.5720512,17.4914409 16.762027,17.4388818 C16.9520029,17.3863227 17.0997529,17.2312775 17.1482884,17.033549 C17.1968239,16.8358204 17.1385596,16.62631 16.9959686,16.4858282 L14.82454,14.232307 C14.7095547,14.1100383 14.5473225,14.0485202 14.3834686,14.0650535 L14.3834686,14.0650535 Z" id="svg-dark" fill="#B30000"></path>
                    <path d="M24.4857143,14.3379408 C24.4629398,14.3393877 24.4402758,14.3423231 24.4178571,14.3467296 C24.2982248,14.3646701 24.1877826,14.4235303 24.1040314,14.5139831 L21.9326029,16.7675042 C21.7900119,16.9079861 21.7317475,17.1174965 21.780283,17.315225 C21.8288185,17.5129536 21.9765685,17.6679987 22.1665444,17.7205578 C22.3565203,17.773117 22.559032,17.714976 22.6959686,17.5685606 L24.8673971,15.3150394 C25.0333263,15.1559287 25.0869725,14.9068083 25.0020964,14.6895276 C24.9172203,14.4722469 24.7115627,14.3322217 24.4857143,14.3379408 Z" id="svg-dark" fill="#B30000"></path>
                    <polygon id="svg-mid" fill="#EE3124" points="18.3361743 18.6777296 23.1285714 31.6178592 25.0201029 27.9999155 28.6928571 31.820338 31 29.4259718 27.31875 25.614338 30.8048969 23.6513239"></polygon>
                    <path d="M12.5428571,19.4259634 C12.2430374,19.4259634 12,19.6781887 12,19.9893437 C12,20.3004986 12.2430374,20.5527239 12.5428571,20.5527239 L16.3428571,20.5527239 C16.6426771,20.5527239 16.8857143,20.3004986 16.8857143,19.9893437 C16.8857143,19.6781887 16.6426771,19.4259634 16.3428571,19.4259634 L12.5428571,19.4259634 Z" id="svg-dark" fill="#B30000"></path>
                    <path d="M16.8857143,22.2252676 C16.8629409,22.2266958 16.8402769,22.2296124 16.8178571,22.234 C16.698223,22.2519443 16.5877807,22.3108096 16.5040314,22.4012676 L14.3326029,24.6547887 C14.1899144,24.795248 14.1315755,25.0048081 14.1800991,25.2025995 C14.2286227,25.4003908 14.3764209,25.5554838 14.5664583,25.6080278 C14.7564957,25.6605718 14.9590551,25.6023503 15.0959686,25.455831 L17.2673971,23.2023099 C17.4333263,23.0431991 17.4869725,22.7940788 17.4020964,22.5767981 C17.3172203,22.3595174 17.1115627,22.2194922 16.8857143,22.2252113 L16.8857143,22.2252676 Z" id="svg-dark" fill="#B30000"></path>
                </g>
            </g>
        </g>
    </g>
</svg>