<?xml version="1.0" encoding="UTF-8"?>
<svg width="45px" height="45px" viewBox="0 0 45 45" version="1.1" xmlns="http://www.w3.org/2000/svg" xmlns:xlink="http://www.w3.org/1999/xlink">
    <!-- Generator: Sketch 54.1 (76490) - https://sketchapp.com -->
    <title>Group 23</title>
    <desc>Created with Sketch.</desc>
    <g id="Page-1" stroke="none" stroke-width="1" fill="none" fill-rule="evenodd">
        <g id="Artboard" transform="translate(-8.000000, -115.000000)">
            <g id="Group-12" transform="translate(8.000000, 115.000000)">
                <g id="Group-2-Copy">
                    <g id="Group-3-Copy">
                        <g id="Group-23">
                            <circle id="svg-light" fill-opacity="0.151755" fill="#FFC312" fill-rule="nonzero" cx="22.5" cy="22.5" r="22.5"></circle>
                            <rect id="svg-white" fill="#FAFAFA" fill-rule="nonzero" x="13.3333333" y="15.8333333" width="17.5" height="11.6666667"></rect>
                            <path d="M12.4404762,26.7216374 C12.4408959,26.9021676 12.3996039,27.080264 12.3199405,27.2415205 L11.347619,29.2105263 C11.1080359,29.6934885 11.1594901,30.2733281 11.4802083,30.7046784 C11.7692102,31.0669749 12.2074568,31.2713076 12.6654762,31.2573099 L19.7248512,31.2573099 C19.8918058,31.2493081 20.0432519,31.1551851 20.1266369,31.0076023 C20.3395402,30.6486864 20.723554,30.4320181 21.135119,30.4385965 L23.1159226,30.4385965 C23.4994692,30.4543099 23.8463097,30.6753646 24.0279762,31.019883 C24.113197,31.1638673 24.2647775,31.2534406 24.4297619,31.2573099 L31.5011905,31.2573099 C31.9598745,31.2670534 32.3967405,31.0581298 32.6824405,30.6923977 C32.9995723,30.2645894 33.0524475,29.6910163 32.8190476,29.2105263 L31.8467262,27.2374269 C31.7669198,27.0762235 31.7256197,26.8980918 31.7261905,26.7175439 L31.7261905,20.7409357 C31.7255146,20.5790252 31.6380229,20.4304431 31.4981277,20.3536298 C31.3582324,20.2768165 31.1883153,20.2840613 31.0552083,20.3725146 L30.3159226,20.8637427 C30.1936506,20.9449921 30.1196702,21.083435 30.1190476,21.2321637 L30.1190476,24.7076023 C30.1190476,25.6119282 29.3995053,26.3450292 28.5119048,26.3450292 L15.6547619,26.3450292 C14.7671614,26.3450292 14.047619,25.6119282 14.047619,24.7076023 L14.047619,16.8561404 C14.047619,16.7671145 14.0823304,16.6817348 14.1441169,16.618784 C14.2059034,16.5558332 14.289704,16.5204678 14.3770833,16.5204678 L21.4364583,16.5204678 C21.7937175,16.5204678 22.0833333,16.2253947 22.0833333,15.8614035 L22.0833333,15.5380117 C22.081124,15.1756202 21.7921543,14.8830339 21.4364583,14.8830409 L14.3770833,14.8830409 C13.3075247,14.8830409 12.4404762,15.7664276 12.4404762,16.8561404 L12.4404762,26.7216374 Z" id="svg-dark" fill="#D9A200"></path>
                            <path d="M32.7333333,11.1253556 C31.5872908,10.9875509 30.4663883,10.7116654 29.4,10.3049288 C28.6441276,10.0297208 27.9155332,9.69593847 27.2222222,9.30724938 C26.8803916,9.11980576 26.4529417,9.11980576 26.1111111,9.30724938 C25.4237183,9.70039364 24.7007158,10.0392515 23.95,10.3201219 C22.8836117,10.7268585 21.7627092,11.002744 20.6166667,11.1405486 C20.2747529,11.1686358 20.0098703,11.4253263 20,11.7381434 L20,17.947052 C20.0000017,19.0459937 20.6024949,20.0722254 21.6055556,20.6818078 L25.3888889,22.9810285 C26.1628123,23.4507683 27.1705211,23.4507683 27.9444444,22.9810285 L31.7277778,20.6818078 C32.7308384,20.0722254 33.3333316,19.0459937 33.3333333,17.947052 L33.3333333,11.7381434 C33.3327864,11.4247189 33.0748861,11.161322 32.7333333,11.1253556 Z" id="svg-mid" fill="#FFC312" fill-rule="nonzero"></path>
                            <path d="M29.9752418,14.5474219 L26.2513942,18.8964089 C26.1380575,19.0287719 25.9809746,19.1047444 25.82074,19.1047444 L25.82074,19.3992117 L25.815319,19.1047444 C25.6529412,19.1031249 25.495228,19.0239132 25.3825217,18.8874276 L23.5038306,16.6132569 C23.2706016,16.3310101 23.2775355,15.8800335 23.5192111,15.6076512 C23.6333042,15.478969 23.7834533,15.4082969 23.9419229,15.4082969 C24.1087132,15.4082969 24.2644093,15.4854473 24.3802673,15.6256137 L25.8285563,17.3787246 L29.1141855,13.5416689 C29.2291611,13.4073918 29.3820837,13.3333333 29.5448397,13.3333333 C29.7074697,13.3333333 29.8603922,13.4072446 29.9753678,13.5415217 C30.212631,13.8189098 30.212631,14.2701809 29.9752418,14.5474219 Z" id="svg-white" fill="#FFFFFF" fill-rule="nonzero"></path>
                        </g>
                    </g>
                </g>
            </g>
        </g>
    </g>
</svg>