<?xml version="1.0" encoding="UTF-8"?>
<svg width="46px" height="46px" viewBox="0 0 46 46" version="1.1" xmlns="http://www.w3.org/2000/svg" xmlns:xlink="http://www.w3.org/1999/xlink">
    <!-- Generator: Sketch 54.1 (76490) - https://sketchapp.com -->
    <title>Group 50</title>
    <desc>Created with Sketch.</desc>
    <g id="Page-1" stroke="none" stroke-width="1" fill="none" fill-rule="evenodd">
        <g id="Artboard" transform="translate(-168.000000, -168.000000)" fill-rule="nonzero">
            <g id="Group-49" transform="translate(168.000000, 168.000000)">
                <g id="Group-50" transform="translate(0.883333, 0.798825)">
                    <circle id="svg-light" fill="#E4F5E4" cx="22.5" cy="22.5" r="22.5"></circle>
                    <path d="M22.5,12.2011753 C16.76546,12.2011753 12.1166667,16.8499687 12.1166667,22.5845367 C12.1166667,28.3190533 16.76546,32.9678467 22.5,32.9678467 C28.2345167,32.9678467 32.8833333,28.3190533 32.8833333,22.5845367 C32.8833333,16.8499687 28.2345167,12.2011753 22.5,12.2011753 Z" id="svg-mid" fill="#3DC33D"></path>
                    <path d="M19.2861133,19.1234053 C19.8322533,19.1234053 20.2750033,19.566132 20.2750033,20.112272 C20.2750033,20.6584587 19.8322533,21.1011853 19.2861133,21.1011853 C18.73995,21.1011853 18.2972233,20.6584587 18.2972233,20.112272 C18.2972233,19.566132 18.73995,19.1234053 19.2861133,19.1234053 Z" id="svg-white" fill="#FFFFFF"></path>
                    <path d="M25.7138867,19.1234053 C26.2600267,19.1234053 26.7027767,19.566132 26.7027767,20.112272 C26.7027767,20.6584587 26.2600267,21.1011853 25.7138867,21.1011853 C25.1677233,21.1011853 24.7249967,20.6584587 24.7249967,20.112272 C24.7249967,19.566132 25.1677233,19.1234053 25.7138867,19.1234053 Z" id="svg-white" fill="#FFFFFF"></path>
                    <path d="M26.65639,25.7752067 C26.8592542,25.7486612 27.0575175,25.8497861 27.1551316,26.0295917 C27.2527456,26.2093972 27.2295506,26.430749 27.0967833,26.5864133 C26.65163,27.1799667 25.94435,27.6956333 25.1267267,28.09293 C24.3091033,28.49018 23.3837967,28.76507 22.5,28.76507 C21.61618,28.76507 20.6908733,28.49018 19.8732733,28.09293 C19.0556267,27.6956333 18.3483467,27.1799433 17.9031933,26.5864133 C17.7911615,26.4412018 17.7687025,26.2459111 17.844846,26.0790588 C17.9209895,25.9122066 18.0832269,25.8012026 18.26633,25.7906767 C18.4327618,25.7817422 18.5924968,25.85725 18.69123,25.99153 C18.98775,26.38689 19.5971467,26.86009 20.3058967,27.20449 C21.0146233,27.5488667 21.82534,27.77618 22.5,27.77618 C23.17459,27.77618 23.98533,27.5488667 24.6941033,27.20449 C25.4028067,26.86009 26.0122267,26.38689 26.3087467,25.99153 C26.3879289,25.8725795 26.5146963,25.7936977 26.65639,25.7752067 L26.65639,25.7752067 Z" id="svg-white" fill="#FFFFFF"></path>
                </g>
            </g>
        </g>
    </g>
</svg>