<?xml version="1.0" encoding="UTF-8"?>
<svg width="45px" height="45px" viewBox="0 0 45 45" version="1.1" xmlns="http://www.w3.org/2000/svg" xmlns:xlink="http://www.w3.org/1999/xlink">
    <!-- Generator: Sketch 54.1 (76490) - https://sketchapp.com -->
    <title>Group 54</title>
    <desc>Created with Sketch.</desc>
    <g id="Page-1" stroke="none" stroke-width="1" fill="none" fill-rule="evenodd">
        <g id="Artboard" transform="translate(-169.000000, -222.000000)">
            <g id="Group-47" transform="translate(168.000000, 222.000000)">
                <g id="Group-54" transform="translate(0.985482, 0.000000)">
                    <circle id="svg-light" fill-opacity="0.113776" fill="#12CBA3" fill-rule="nonzero" cx="22.5" cy="22.5" r="22.5"></circle>
                    <path d="M32.4285714,22.3416667 L32.4285714,20.1666667 C32.4285714,15.1040565 28.2072562,11 23,11 C17.7927438,11 13.5714286,15.1040565 13.5714286,20.1666667 L13.5714286,22.3416667 C11.639233,23.3087607 10.6373856,25.4346932 11.1457854,27.488911 C11.6541853,29.5431288 13.5410829,30.9932908 15.7142857,31 L16.1428571,31 C17.089631,31 17.8571429,30.2538079 17.8571429,29.3333333 L17.8571429,23.5 C17.8571429,22.5795254 17.089631,21.8333333 16.1428571,21.8333333 L15.7142857,21.8333333 L15.2857143,21.8333333 L15.2857143,20.1666667 C15.2857143,16.024531 18.7395176,12.6666667 23,12.6666667 C27.2604824,12.6666667 30.7142857,16.024531 30.7142857,20.1666667 L30.7142857,21.8333333 L30.2857143,21.8333333 L29.8571429,21.8333333 C28.910369,21.8333333 28.1428571,22.5795254 28.1428571,23.5 L28.1428571,29.3333333 L25.5714286,29.3333333 L25.5714286,28.5 C25.5714286,28.0397627 25.1876726,27.6666667 24.7142857,27.6666667 L23,27.6666667 C22.5266131,27.6666667 22.1428571,28.0397627 22.1428571,28.5 L22.1428571,30.1666667 C22.1428571,30.626904 22.5266131,31 23,31 L30.2857143,31 C32.4589171,30.9932908 34.3458147,29.5431288 34.8542146,27.488911 C35.3626144,25.4346932 34.360767,23.3087607 32.4285714,22.3416667 Z" id="svg-mid" fill="#62D2B7"></path>
                </g>
            </g>
        </g>
    </g>
</svg>