<?xml version="1.0" encoding="UTF-8"?>
<svg width="45px" height="45px" viewBox="0 0 45 45" version="1.1" xmlns="http://www.w3.org/2000/svg" xmlns:xlink="http://www.w3.org/1999/xlink">
    <!-- Generator: Sketch 54.1 (76490) - https://sketchapp.com -->
    <title>Group 57</title>
    <desc>Created with Sketch.</desc>
    <g id="Page-1" stroke="none" stroke-width="1" fill="none" fill-rule="evenodd">
        <g id="Artboard" transform="translate(-61.000000, -275.000000)">
            <g id="Group-39" transform="translate(61.000000, 275.000000)">
                <g id="Group-57">
                    <circle id="svg-light" fill="#DDF0F8" fill-rule="nonzero" cx="22.5" cy="22.5" r="22.5"></circle>
                    <path d="M22.4829473,10.4453369 C19.40789,11.8818359 17.8703613,12.7608154 17.8703613,13.0822754 C17.8703613,13.4037354 17.7619523,15.0888184 17.5451342,18.1375244 L22.4829473,18.3574707 L27.9675611,18.3574707 L27.6580492,14.79021 C26.176657,12.9373291 25.4359609,11.9732788 25.4359609,11.8980591 C25.4359609,11.8228394 24.451623,11.3385986 22.4829473,10.4453369 Z" id="svg-white" fill="#FAFAFA" fill-rule="nonzero"></path>
                    <path d="M22.0434783,9.8 C22.0434783,9.8 26.4292766,11.1146597 26.4292766,17.9 L32.4774917,18.283367 C32.4774917,18.6667341 29.7624834,9.8 22.0434783,9.8 Z" id="svg-mid" fill="#0294D2"></path>
                    <path d="M22.9565217,9.8 C22.9565217,9.8 18.5696332,11.4980267 18.5696332,18.283367 L12.5937235,18.1076416 C12.5937235,18.1076416 15.2375166,9.8 22.9565217,9.8 Z" id="svg-mid" fill="#0294D2"></path>
                    <path d="M22.5,10.7 C22.226087,10.7 22.0434783,10.5169492 22.0434783,10.2423729 L22.0434783,8.45762712 C22.0434783,8.18305085 22.226087,8 22.5,8 C22.773913,8 22.9565217,8.18305085 22.9565217,8.45762712 L22.9565217,10.2423729 C22.9565217,10.5169492 22.773913,10.7 22.5,10.7 Z" id="svg-mid" fill="#0294D2"></path>
                    <path d="M27.0652174,18.8 L17.9347826,18.8 C17.6608696,18.8 17.4782609,18.6299882 17.4782609,18.3749705 C17.4782609,11.4044864 22.1804348,9.91688312 22.3630435,9.83187721 C22.4543478,9.78937426 22.5456522,9.78937426 22.6369565,9.83187721 C22.8195652,9.91688312 27.5217391,11.3619835 27.5217391,18.3749705 C27.5217391,18.6299882 27.3391304,18.8 27.0652174,18.8 Z M18.3913043,17.949941 L26.6086957,17.949941 C26.4717391,12.5095632 23.2304348,10.9794569 22.5,10.7244392 C21.7695652,10.9794569 18.573913,12.5520661 18.3913043,17.949941 Z" id="svg-mid" fill="#0294D2" fill-rule="nonzero"></path>
                    <path d="M32.5437866,18.8 L26.8807961,18.8 C26.6174012,18.8 26.4418046,18.6285714 26.4418046,18.3714286 C26.4418046,11.9428571 22.5347801,10.6571429 22.3591835,10.6142857 C22.1396877,10.5714286 22.0079903,10.3571429 22.0518894,10.1428571 C22.0957886,9.92857143 22.2713852,9.8 22.4908809,9.8 C30.4805265,9.8 32.938879,18.2 32.9827782,18.2857143 C33.0266773,18.4142857 32.9827782,18.5428571 32.8949798,18.6714286 C32.8071815,18.7571429 32.6754841,18.8 32.5437866,18.8 Z M27.3197876,17.9428571 L31.9291985,17.9428571 C31.6658036,17.2142857 31.0512155,15.8428571 30.041535,14.5142857 C28.5050647,12.4571429 26.573502,11.2142857 24.3785444,10.7857143 C25.6516198,11.8571429 27.1880901,13.9571429 27.3197876,17.9428571 Z" id="svg-mid" fill="#0294D2" fill-rule="nonzero"></path>
                    <path d="M18.1192039,18.8 L12.4562134,18.8 C12.3245159,18.8 12.1928185,18.757346 12.1050202,18.6293839 C12.0172218,18.5440758 11.9733227,18.3734597 12.0172218,18.2454976 C12.061121,18.1601896 14.5194735,9.8 22.5091191,9.8 C22.7286148,9.8 22.9042114,9.97061611 22.9481106,10.1838863 C22.9920097,10.3971564 22.8603123,10.6104265 22.6408165,10.6530806 C22.4652199,10.6957346 18.5581954,12.0180095 18.5581954,18.3734597 C18.5581954,18.6293839 18.3825988,18.8 18.1192039,18.8 Z M13.0708015,17.9469194 L17.6802124,17.9469194 C17.7680107,13.9800948 19.3483802,11.8900474 20.6214556,10.8236967 C18.3825988,11.250237 16.4949353,12.4872038 14.958465,14.5345972 C13.9487845,15.856872 13.3341964,17.2218009 13.0708015,17.9469194 Z" id="svg-mid" fill="#0294D2" fill-rule="nonzero"></path>
                    <path d="M22.5,27.8 C22.226087,27.8 22.0434783,27.6937008 22.0434783,27.5661417 L22.0434783,19.9338583 C22.0434783,19.8062992 22.226087,19.7 22.5,19.7 C22.773913,19.7 22.9565217,19.8062992 22.9565217,19.9338583 L22.9565217,27.5661417 C22.9565217,27.6937008 22.773913,27.8 22.5,27.8 Z" id="svg-mid" fill="#0294D2"></path>
                    <path d="M29.3438127,34.946 C28.9244147,34.946 28.5622074,34.82 28.2381271,34.568 C28.0665552,34.442 27.9140468,34.298 27.7615385,34.154 C27.6471572,34.046 27.5327759,33.956 27.3993311,33.884 C27.151505,33.74 26.9227425,33.758 26.6939799,33.884 C26.5795987,33.956 26.4652174,34.028 26.3698997,34.118 C26.2173913,34.262 26.0458194,34.406 25.8742475,34.532 C25.3214047,34.964 24.7304348,35.054 24.0632107,34.802 C23.9107023,34.748 23.7772575,34.658 23.6628763,34.568 C23.4913043,34.424 23.3197324,34.28 23.1481605,34.136 C23.0528428,34.046 22.9384615,33.956 22.8240803,33.884 C22.5953177,33.74 22.3856187,33.722 22.1377926,33.848 C21.9471572,33.956 21.7565217,34.1 21.6040134,34.244 C21.3943144,34.442 21.1846154,34.622 20.9177258,34.748 C20.3648829,35.018 19.8311037,35 19.2782609,34.73 C19.0494983,34.604 18.8588629,34.442 18.6682274,34.262 C18.5157191,34.118 18.3632107,33.992 18.1916388,33.884 C17.9819398,33.758 17.7722408,33.74 17.5434783,33.848 C17.3528428,33.938 17.2003344,34.082 17.0478261,34.208 C16.9143813,34.316 16.8,34.424 16.6665552,34.532 C16.2090301,34.892 15.6943144,35.036 15.1033445,34.892 C14.8745819,34.838 14.6648829,34.73 14.4742475,34.604 C14.3026756,34.478 14.1311037,34.334 13.9785953,34.19 C13.826087,34.028 13.8070234,33.812 13.9595318,33.65 C14.1120401,33.488 14.3598662,33.488 14.5314381,33.632 C14.6648829,33.74 14.7792642,33.848 14.8936455,33.956 C15.0080268,34.064 15.1414716,34.118 15.2749164,34.154 C15.5799331,34.226 15.8658863,34.172 16.1137124,33.956 C16.2852843,33.83 16.4377926,33.686 16.590301,33.56 C16.8190635,33.362 17.0668896,33.2 17.3528428,33.092 C17.7150502,32.966 18.058194,32.984 18.4013378,33.128 C18.6682274,33.236 18.8779264,33.416 19.0685619,33.596 C19.2210702,33.722 19.3735786,33.866 19.526087,33.992 C19.8311037,34.226 20.1551839,34.244 20.4983278,34.1 C20.7652174,33.974 20.9367893,33.758 21.1464883,33.596 C21.4133779,33.398 21.661204,33.2 21.9852843,33.092 C22.3665552,32.984 22.709699,33.002 23.0528428,33.182 C23.2816054,33.29 23.4913043,33.434 23.6628763,33.614 C23.7963211,33.758 23.967893,33.884 24.1204013,34.01 C24.4254181,34.244 24.8257525,34.262 25.1498328,34.064 C25.3595318,33.938 25.5501672,33.758 25.7217391,33.596 C25.9314381,33.416 26.1602007,33.254 26.4080268,33.146 C26.8846154,32.948 27.3230769,32.984 27.7615385,33.236 C28.0284281,33.398 28.2571906,33.596 28.4859532,33.812 C28.6384615,33.956 28.8100334,34.1 29.0197324,34.154 C29.3438127,34.226 29.6297659,34.172 29.877592,33.956 C30.0301003,33.812 30.2016722,33.704 30.3541806,33.56 C30.5448161,33.38 30.8117057,33.434 30.9451505,33.578 C31.0976589,33.74 31.0785953,33.974 30.9070234,34.136 C30.716388,34.298 30.5257525,34.46 30.3351171,34.604 C30.087291,34.82 29.7441472,34.946 29.3438127,34.946 Z" id="svg-dark" fill="#0066A0"></path>
                    <path d="M15.5608696,31.634 C15.1605351,31.634 14.7983278,31.526 14.4742475,31.292 C14.3217391,31.166 14.1692308,31.04 14.0167224,30.896 C13.8451505,30.734 13.8451505,30.5 13.9785953,30.356 C14.1311037,30.194 14.3789298,30.194 14.5695652,30.338 C14.6839465,30.446 14.7983278,30.554 14.912709,30.644 C15.2939799,30.95 15.7324415,30.95 16.1137124,30.662 C16.2852843,30.536 16.4568562,30.392 16.6284281,30.248 C16.9334448,29.996 17.2575251,29.78 17.6578595,29.726 C17.9247492,29.672 18.1916388,29.726 18.4394649,29.834 C18.687291,29.942 18.8779264,30.104 19.0876254,30.266 C19.2210702,30.392 19.3735786,30.5 19.5070234,30.626 C19.8882943,30.968 20.40301,30.95 20.7842809,30.626 C20.8986622,30.536 21.0130435,30.428 21.1274247,30.32 C21.3371237,30.158 21.5468227,29.978 21.7946488,29.87 C22.290301,29.636 22.7859532,29.636 23.2816054,29.942 C23.5294314,30.104 23.7391304,30.302 23.967893,30.5 C24.1204013,30.626 24.2729097,30.77 24.4826087,30.842 C24.7876254,30.932 25.0545151,30.878 25.3214047,30.698 C25.5120401,30.572 25.6645485,30.428 25.8361204,30.266 C26.0648829,30.05 26.3317726,29.888 26.6367893,29.78 C27.0180602,29.654 27.3993311,29.672 27.7615385,29.87 C27.990301,29.978 28.1809365,30.122 28.3715719,30.302 C28.4859532,30.41 28.6003344,30.518 28.7147157,30.608 C29.1150502,30.95 29.5916388,30.968 30.0110368,30.644 C30.1635452,30.518 30.3160535,30.392 30.4494983,30.266 C30.6401338,30.104 30.9070234,30.086 31.0595318,30.266 C31.2120401,30.446 31.1929766,30.68 30.9832776,30.842 C30.8307692,30.968 30.6782609,31.094 30.5257525,31.22 C29.8585284,31.778 28.8672241,31.76 28.2571906,31.238 C28.0856187,31.094 27.9331104,30.968 27.780602,30.824 C27.6662207,30.716 27.5327759,30.626 27.3993311,30.554 C27.1705686,30.428 26.9608696,30.464 26.7511706,30.59 C26.6367893,30.662 26.522408,30.734 26.4270903,30.824 C26.2555184,30.986 26.0648829,31.13 25.8742475,31.274 C25.3404682,31.67 24.7494983,31.76 24.1204013,31.526 C23.9297659,31.454 23.758194,31.346 23.6247492,31.22 C23.4341137,31.058 23.2625418,30.896 23.0719064,30.734 C22.9575251,30.644 22.8240803,30.554 22.6715719,30.5 C22.5,30.446 22.3474916,30.482 22.1949833,30.554 C22.0043478,30.644 21.8518395,30.77 21.6993311,30.914 C21.4896321,31.13 21.241806,31.31 20.9749164,31.454 C20.4220736,31.724 19.8882943,31.706 19.3354515,31.436 C19.106689,31.328 18.9351171,31.166 18.7444816,30.986 C18.5919732,30.842 18.4204013,30.716 18.2488294,30.59 C18.0200669,30.428 17.7913043,30.428 17.5434783,30.554 C17.3528428,30.662 17.2003344,30.806 17.0478261,30.932 C16.9334448,31.022 16.8190635,31.148 16.6856187,31.238 C16.3424749,31.49 15.9802676,31.652 15.5608696,31.634 Z" id="svg-dark" fill="#0066A0"></path>
                </g>
            </g>
        </g>
    </g>
</svg>