<?xml version="1.0" encoding="UTF-8"?>
<svg width="46px" height="46px" viewBox="0 0 46 46" version="1.1" xmlns="http://www.w3.org/2000/svg" xmlns:xlink="http://www.w3.org/1999/xlink">
    <!-- Generator: Sketch 54.1 (76490) - https://sketchapp.com -->
    <title>Group 52</title>
    <desc>Created with Sketch.</desc>
    <g id="Page-1" stroke="none" stroke-width="1" fill="none" fill-rule="evenodd">
        <g id="Artboard" transform="translate(-61.000000, -221.000000)" fill-rule="nonzero">
            <g id="Group-30" transform="translate(61.000000, 221.000000)">
                <g id="Group-52" transform="translate(0.757811, 0.910717)">
                    <circle id="svg-light" fill="#E4F9F5" cx="22.5" cy="22.5" r="22.5"></circle>
                    <rect id="svg-white" fill="#FFFFFF" x="16" y="21.159455" width="12" height="8"></rect>
                    <path d="M21.9541667,11.25128 C21.8528111,11.2601336 21.75668,11.3010986 21.6791667,11.3684675 L11.4125001,20.36846 C11.2795722,20.4855234 11.2179583,20.6663147 11.2509422,20.8425136 C11.283926,21.0187124 11.4064774,21.1634479 11.5722846,21.222025 C11.7380918,21.280602 11.9218687,21.2440875 12.0541666,21.12628 L22,12.40753 L31.9458333,21.12628 C32.0781314,21.2440865 32.2619077,21.2806003 32.4277143,21.2220232 C32.5935209,21.163446 32.7160719,21.0187111 32.7490559,20.8425128 C32.78204,20.6663146 32.7204269,20.4855237 32.5875,20.36846 L22.3208333,11.3684675 C22.2193657,11.279878 22.0869043,11.237543 21.9541667,11.25128 Z M26.1555556,12.25128 L26.1555556,14.06378 L28.1111111,15.78253 L28.1111111,12.25128 L26.1555556,12.25128 Z M22,13.25128 L14.1777778,20.001285 L14.1777778,31.751255 L29.8222222,31.751255 L29.8222222,20.001285 L22,13.25128 Z M18.5777778,21.75128 L21.5111111,21.75128 L21.5111111,24.751255 L18.5777778,24.751255 L18.5777778,21.75128 Z M22.4888889,21.75128 L25.4222222,21.75128 L25.4222222,24.751255 L22.4888889,24.751255 L22.4888889,21.75128 Z M18.5777778,25.751255 L21.5111111,25.751255 L21.5111111,28.751255 L18.5777778,28.751255 L18.5777778,25.751255 L18.5777778,25.751255 Z M22.4888889,25.751255 L25.4222222,25.751255 L25.4222222,28.751255 L22.4888889,28.751255 L22.4888889,25.751255 L22.4888889,25.751255 Z" id="svg-mid" fill="#62D2B7"></path>
                </g>
            </g>
        </g>
    </g>
</svg>