<?xml version="1.0" encoding="UTF-8"?>
<svg width="45px" height="45px" viewBox="0 0 45 45" version="1.1" xmlns="http://www.w3.org/2000/svg" xmlns:xlink="http://www.w3.org/1999/xlink">
    <!-- Generator: Sketch 54.1 (76490) - https://sketchapp.com -->
    <title>Group 18</title>
    <desc>Created with Sketch.</desc>
    <g id="Page-1" stroke="none" stroke-width="1" fill="none" fill-rule="evenodd">
        <g id="Artboard" transform="translate(-167.000000, -9.000000)">
            <g id="Group-43" transform="translate(167.000000, 9.000000)">
                <g id="Group-18">
                    <circle id="svg-light" fill-opacity="0.705273" fill="#FFD5CD" fill-rule="nonzero" cx="22.5" cy="22.5" r="22.5"></circle>
                    <path d="M34.9332819,20.3076128 L24.0078321,11.4340338 C23.4356764,10.8553221 22.5365745,10.8553221 21.9644188,11.4340338 L11.0662144,20.3076128 C10.4940587,20.8863245 13.818011,21.3823631 13.818011,21.3823631 L13.818011,29.8701343 C13.818011,30.4764037 13.8452565,30.9724423 13.8452565,30.9724423 L20.7928618,30.9724423 L20.7928618,24.9924216 L25.2611256,24.9924216 L25.2611256,31 L32.2087308,31 C32.2087308,31 32.2359763,30.5039614 32.2359763,29.897692 L32.2359763,21.3823631 C32.2087308,21.3823631 35.5054376,20.8863245 34.9332819,20.3076128 Z" id="svg-mid" fill="#EE3124"></path>
                    <path d="M23.0350877,15 C24.4736842,15 24.8947368,15.8476454 24.8947368,16.6204986 L24.8947368,16.7119114 L23.9473684,16.7119114 L23.9473684,16.6454294 C23.9473684,16.0304709 23.6315789,15.6648199 23.0789474,15.6648199 C22.5526316,15.6648199 22.2192982,15.9556787 22.2192982,16.3795014 C22.2192982,16.6454294 22.2982456,16.9279778 22.4561404,17.2354571 L22.7017544,17.700831 L24.1578947,17.700831 L24.1578947,18.265928 L22.9298246,18.265928 C22.9912281,18.398892 23.0175439,18.5734072 23.0175439,18.7479224 C23.0175439,19.2963989 22.7017544,19.6786704 21.9912281,20.1939058 L22.0087719,20.2271468 C22.2280702,20.0941828 22.4473684,20.0360111 22.6491228,20.0360111 C23.0087719,20.0360111 23.4210526,20.2853186 23.745614,20.2853186 C24,20.2853186 24.2982456,20.1274238 24.4035088,20.0692521 L24.6666667,19.9362881 L25,20.5927978 L24.8245614,20.6925208 C24.4385965,20.9085873 24.1666667,21 23.7105263,21 C23.122807,21 22.6666667,20.6759003 22.1842105,20.6759003 C21.9824561,20.6759003 21.7719298,20.7257618 21.3508772,20.933518 L21,20.2936288 C21.7807018,19.7783934 22.0701754,19.2880886 22.0701754,18.8144044 C22.0701754,18.6481994 22.0350877,18.5069252 21.9122807,18.265928 L21.0526316,18.265928 L21.0526316,17.700831 L21.6578947,17.700831 L21.4561404,17.3102493 C21.3245614,17.0526316 21.2192982,16.7867036 21.2192982,16.4875346 C21.2192982,15.7396122 21.8245614,15 23.0350877,15 Z" id="svg-white" stroke="#FFFFFF" stroke-width="0.3" fill="#FFFFFF"></path>
                </g>
            </g>
        </g>
    </g>
</svg>