<?xml version="1.0" encoding="UTF-8"?>
<svg width="46px" height="46px" viewBox="0 0 46 46" version="1.1" xmlns="http://www.w3.org/2000/svg" xmlns:xlink="http://www.w3.org/1999/xlink">
    <!-- Generator: Sketch 54.1 (76490) - https://sketchapp.com -->
    <title>Group 25</title>
    <desc>Created with Sketch.</desc>
    <g id="Page-1" stroke="none" stroke-width="1" fill="none" fill-rule="evenodd">
        <g id="Artboard" transform="translate(-114.000000, -115.000000)">
            <g id="Group-9" transform="translate(114.000000, 115.000000)">
                <g id="Group-25" transform="translate(0.854094, 0.776539)">
                    <circle id="svg-light" fill="#FFF6DB" fill-rule="nonzero" cx="22.5" cy="22.5" r="22.5"></circle>
                    <path d="M31.2908125,10.7709868 C30.2813281,9.77305263 28.9387031,9.22346053 27.5109062,9.22346053 C26.0823906,9.22346053 24.740125,9.77305263 23.731,10.7709868 C22.7207969,11.7692763 22.1644844,13.0961842 22.1644844,14.508 C22.1644844,14.5289605 22.1662812,14.5492105 22.1662812,14.5701711 C20.6159375,14.2205921 18.9232812,14.6415789 17.7150625,15.8356184 C16.4349687,17.1014211 16.0324687,18.9065132 16.5072031,20.5115921 L10.1459062,26.8001053 L10.2842656,29.8035 L13.3910625,30.0077763 L14.5141094,28.8975789 L14.5141094,27.51525 L15.9124375,27.51525 L16.046125,27.3834474 L16.046125,26.0007632 L17.4448125,26.0007632 L17.5781406,25.8689605 L17.5781406,24.4866316 L18.9764687,24.4866316 L19.7527187,23.7189079 C21.3767344,24.1882105 23.202,23.7899605 24.4824531,22.5245132 C26.3508437,20.6775 26.3512031,17.6826316 24.4824531,15.8352632 C24.2420312,15.5975921 23.9818437,15.3908289 23.708,15.2142632 C23.6645156,14.9836974 23.6400781,14.7478026 23.6400781,14.5076447 C23.6400781,13.4855526 24.0429375,12.5242105 24.7742656,11.8016053 C25.5052344,11.079 26.4773437,10.68075 27.511625,10.68075 C28.5455469,10.68075 29.5176562,11.079 30.248625,11.8016053 C30.8146406,12.3611447 31.168625,13.0521316 31.3098594,13.7765132 C31.3572969,14.0177368 31.3802969,14.2628684 31.3802969,14.5076447 C31.3802969,15.4874605 31.0033125,16.4676316 30.248625,17.2136842 C29.9233906,17.5351974 29.5521562,17.7835263 29.1575625,17.9664868 C29.4939375,18.3359605 29.7789219,18.7441579 30.0082031,19.1807763 C30.47,18.9395526 30.9034062,18.6279868 31.2911719,18.2443026 C33.3755469,16.1844868 33.3755469,12.8315132 31.2908125,10.7709868 Z M21.9535312,18.33525 C21.4529219,17.8407237 21.4529219,17.0385395 21.9535312,16.5436579 C22.1001562,16.3987105 22.2737344,16.2978158 22.4577344,16.2377763 C22.719,16.9848947 23.1491719,17.6694868 23.7313594,18.2446579 C23.7514844,18.2652632 23.7737656,18.2837368 23.7946094,18.3039868 C23.7849062,18.3142895 23.7762812,18.3253026 23.7658594,18.3356053 C23.26525,18.8301316 22.4537812,18.8301316 21.9535312,18.33525 Z" id="svg-mid" fill="#FFC312" fill-rule="nonzero"></path>
                    <path d="M26.9743594,17.6652237 C27.4968906,19.6589605 26.971125,21.8679868 25.3945469,23.4265263 C24.2470625,24.5605263 22.7215156,25.1847237 21.0989375,25.1847237 C21.0382031,25.1847237 20.9778281,25.17975 20.9170937,25.1779737 L17.6169531,33.0538026 L18.90675,35.7758289 L21.8568594,34.7896184 L22.4645625,33.3390789 L21.9294531,32.0619079 L23.2214062,31.5329211 L23.2936406,31.3606184 L22.7588906,30.0834474 L24.0504844,29.5548158 L24.1230781,29.3825132 L23.5879687,28.1053421 L24.8799219,27.5763553 L25.3000312,26.5734474 C26.9819062,26.3926184 28.5139219,25.3346447 29.2075156,23.6805395 C30.1677656,21.3880263 29.1690625,18.7779079 26.9743594,17.6652237 Z" id="svg-dark" fill="#D9A200"></path>
                </g>
            </g>
        </g>
    </g>
</svg>