<?xml version="1.0" encoding="UTF-8"?>
<svg width="45px" height="45px" viewBox="0 0 45 45" version="1.1" xmlns="http://www.w3.org/2000/svg" xmlns:xlink="http://www.w3.org/1999/xlink">
    <!-- Generator: Sketch 54.1 (76490) - https://sketchapp.com -->
    <title>Group 58</title>
    <desc>Created with Sketch.</desc>
    <g id="Page-1" stroke="none" stroke-width="1" fill="none" fill-rule="evenodd">
        <g id="Artboard" transform="translate(-115.000000, -276.000000)">
            <g id="Group-32" transform="translate(115.000000, 276.000000)">
                <g id="Group-58">
                    <circle id="svg-light" fill="#DDF0F8" fill-rule="nonzero" cx="22.5" cy="22.5" r="22.5"></circle>
                    <path d="M15.5724138,12.567 L14.5172414,13.995 C14.4758621,14.037 14.4551724,14.1 14.4551724,14.163 L14.4551724,32.286 C14.4551724,32.433 14.5793103,32.538 14.7034483,32.538 L16.8344828,32.538 C16.9793103,32.538 17.0827586,32.412 17.0827586,32.286 L17.0827586,14.142 C17.0827586,14.079 17.062069,14.037 17.0206897,13.974 L15.9655172,12.546 C15.8827586,12.42 15.6758621,12.42 15.5724138,12.567 Z" id="svg-mid" fill="#0294D2"></path>
                    <path d="M16.8344828,32.853 L14.7034483,32.853 C14.3931034,32.853 14.1448276,32.601 14.1448276,32.286 L14.1448276,14.142 C14.1448276,14.016 14.1862069,13.89 14.2689655,13.785 L15.3241379,12.357 C15.4275862,12.21 15.5931034,12.126 15.7793103,12.126 C15.9655172,12.126 16.1310345,12.21 16.2344828,12.357 L17.2896552,13.785 C17.3724138,13.89 17.4137931,14.016 17.4137931,14.142 L17.4137931,32.265 C17.4137931,32.601 17.1448276,32.853 16.8344828,32.853 Z M14.7655172,32.223 L16.7931034,32.223 L16.7931034,14.163 L15.7793103,12.819 L14.7655172,14.163 L14.7655172,32.223 L14.7655172,32.223 Z" id="svg-mid" fill="#0294D2" fill-rule="nonzero"></path>
                    <path d="M28.7315369,27.246 L19.0337356,27.246 C18.8732519,27.246 18.7586207,27.12 18.7586207,26.994 L18.7586207,21.282 C18.7586207,21.135 18.8961782,21.03 19.0337356,21.03 L28.7315369,21.03 C28.8920206,21.03 29.0066518,21.156 29.0066518,21.282 L29.0066518,26.973 C29.029578,27.12 28.8920206,27.246 28.7315369,27.246 Z" id="svg-dark" fill="#0066A0"></path>
                    <rect id="svg-mid" fill="#0294D2" x="20.3724138" y="18.363" width="1" height="2.184"></rect>
                    <rect id="svg-mid" fill="#0294D2" x="26.2068966" y="18.363" width="1" height="2.184"></rect>
                    <path d="M29.848501,17.1141732 L28.6384157,16.2507874 C28.6022937,16.2169291 28.5481108,16.2 28.5119889,16.2 L18.2352941,16.2 L18.2352941,18.35 L28.4939279,18.35 C28.5481108,18.35 28.5842328,18.3330709 28.6203547,18.2992126 L29.83044,17.4358268 C29.9749278,17.3511811 29.9749278,17.1818898 29.848501,17.1141732 Z" id="svg-mid" fill="#0294D2"></path>
                </g>
            </g>
        </g>
    </g>
</svg>