<?xml version="1.0" encoding="UTF-8"?>
<svg width="45px" height="45px" viewBox="0 0 45 45" version="1.1" xmlns="http://www.w3.org/2000/svg" xmlns:xlink="http://www.w3.org/1999/xlink">
    <!-- Generator: Sketch 54.1 (76490) - https://sketchapp.com -->
    <title>Group 21</title>
    <desc>Created with Sketch.</desc>
    <g id="Page-1" stroke="none" stroke-width="1" fill="none" fill-rule="evenodd">
        <g id="Artboard" transform="translate(-114.000000, -62.000000)" fill-rule="nonzero">
            <g id="Group-4" transform="translate(114.000000, 62.000000)">
                <g id="Group-21">
                    <circle id="svg-light" fill="#FFF3E6" cx="22.5" cy="22.5" r="22.5"></circle>
                    <path d="M17.8636364,12.42 C16.496742,12.42 15.4090909,13.536654 15.4090909,14.94 L15.4090909,28.38 L23.7272727,28.38 C23.953198,28.3800232 24.136341,28.56805 24.1363636,28.8 L24.1363636,30.48 C24.1363636,31.642112 24.9333559,32.58854 25.9943182,32.8075 C26.0395147,32.8174597 26.0827403,32.835211 26.1221591,32.86 L26.4545455,32.86 C27.7458944,32.86 28.7727273,31.805772 28.7727273,30.48 L28.7727273,14.94 C28.7727273,13.9219536 29.2426323,13.0364312 29.9403409,12.42 L17.8636364,12.42 Z" id="svg-mid" fill="#FF9220"></path>
                    <path d="M17.625,16.62 C17.6306812,16.6198791 17.6363642,16.6198791 17.6420455,16.62 C17.6703771,16.6169538 17.6989411,16.6169538 17.7272727,16.62 L21.5454545,16.62 C21.6929874,16.6178579 21.8302151,16.6974376 21.9045904,16.8282666 C21.9789658,16.9590956 21.9789658,17.1209044 21.9045904,17.2517334 C21.8302151,17.3825624 21.6929874,17.4621421 21.5454545,17.46 L17.7272727,17.46 C17.5013381,17.4889949 17.2952873,17.3244596 17.2670455,17.0925 C17.2388036,16.8605404 17.3990653,16.6489949 17.625,16.62 Z" id="svg-light" fill="#FFFFFF"></path>
                    <path d="M17.625,19.42 C17.6306812,19.4198791 17.6363642,19.4198791 17.6420455,19.42 C17.6703771,19.4169538 17.6989411,19.4169538 17.7272727,19.42 L26.4545455,19.42 C26.6020783,19.4178579 26.739306,19.4974376 26.8136813,19.6282666 C26.8880567,19.7590956 26.8880567,19.9209044 26.8136813,20.0517334 C26.739306,20.1825624 26.6020783,20.2621421 26.4545455,20.26 L17.7272727,20.26 C17.5013381,20.2889949 17.2952873,20.1244596 17.2670455,19.8925 C17.2388036,19.6605404 17.3990653,19.4489949 17.625,19.42 Z" id="svg-light" fill="#FFFFFF"></path>
                    <path d="M17.625,22.22 C17.6306812,22.2198791 17.6363642,22.2198791 17.6420455,22.22 C17.6703771,22.2169538 17.6989411,22.2169538 17.7272727,22.22 L26.4545455,22.22 C26.6020783,22.2178579 26.739306,22.2974376 26.8136813,22.4282666 C26.8880567,22.5590956 26.8880567,22.7209044 26.8136813,22.8517334 C26.739306,22.9825624 26.6020783,23.0621421 26.4545455,23.06 L17.7272727,23.06 C17.5013381,23.0889949 17.2952873,22.9244596 17.2670455,22.6925 C17.2388036,22.4605404 17.3990653,22.2489949 17.625,22.22 L17.625,22.22 Z" id="svg-light" fill="#FFFFFF"></path>
                    <path d="M17.625,25.02 C17.6306812,25.0198791 17.6363642,25.0198791 17.6420455,25.02 C17.6703771,25.0169538 17.6989411,25.0169538 17.7272727,25.02 L21.5454545,25.02 C21.6929874,25.0178579 21.8302151,25.0974376 21.9045904,25.2282666 C21.9789658,25.3590956 21.9789658,25.5209044 21.9045904,25.6517334 C21.8302151,25.7825624 21.6929874,25.8621421 21.5454545,25.86 L17.7272727,25.86 C17.5013381,25.8889949 17.2952873,25.7244596 17.2670455,25.4925 C17.2388036,25.2605404 17.3990653,25.0489949 17.625,25.02 Z" id="svg-light" fill="#FFFFFF"></path>
                    <path d="M12.1363636,29.22 L12.1363636,30.48 C12.1363636,31.805772 13.1631965,32.86 14.4545455,32.86 L24.4090909,32.86 C23.7579363,32.269536 23.3181818,31.441072 23.3181818,30.48 L23.3181818,29.22 L12.1363636,29.22 Z" id="svg-dark" fill="#E1801B"></path>
                </g>
            </g>
        </g>
    </g>
</svg>