<?xml version="1.0" encoding="UTF-8"?>
<svg width="45px" height="45px" viewBox="0 0 45 45" version="1.1" xmlns="http://www.w3.org/2000/svg" xmlns:xlink="http://www.w3.org/1999/xlink">
    <!-- Generator: Sketch 54.1 (76490) - https://sketchapp.com -->
    <title>Group 55</title>
    <desc>Created with Sketch.</desc>
    <g id="Page-1" stroke="none" stroke-width="1" fill="none" fill-rule="evenodd">
        <g id="Artboard" transform="translate(-222.000000, -223.000000)">
            <g id="Group-42" transform="translate(222.000000, 223.000000)">
                <g id="Group-55">
                    <circle id="svg-light" fill-opacity="0.113776" fill="#12CBA3" fill-rule="nonzero" cx="22.5" cy="22.5" r="22.5"></circle>
                    <path d="M27.9591837,15.1364063 L27.9591837,11.71875 C27.9591837,11.3217953 27.63025,11 27.2244898,11 L14.7346939,11 C14.3289337,11 14,11.3217953 14,11.71875 L14,33.28125 C14,33.6782047 14.3289337,34 14.7346939,34 L27.2244898,34 C27.63025,34 27.9591837,33.6782047 27.9591837,33.28125 L27.9591837,26.2626562 C30.1989964,25.2756071 31.6392212,23.0956016 31.6392212,20.6923437 C31.6392212,18.2890859 30.1989964,16.1090804 27.9591837,15.1220312 L27.9591837,15.1364063 Z" id="svg-mid" fill="#62D2B7" fill-rule="nonzero"></path>
                    <path d="M20.9795918,32.921875 C20.3709515,32.921875 19.877551,32.439182 19.877551,31.84375 C19.877551,31.248318 20.3709515,30.765625 20.9795918,30.765625 C21.5882322,30.765625 22.0816327,31.248318 22.0816327,31.84375 C22.0816327,32.439182 21.5882322,32.921875 20.9795918,32.921875 Z" id="svg-white" fill="#FFFFFF" fill-rule="nonzero"></path>
                    <path d="M26.4897959,29.6875 L15.4693878,29.6875 L15.4693878,12.4375 L26.4897959,12.4375 L26.4897959,14.6907813 C25.8652683,14.5818911 25.2276116,14.564933 24.5979592,14.6404688 C22.5386124,14.8981032 20.7447859,16.1401101 19.8116074,17.954436 C18.8784288,19.7687619 18.9279245,21.9181579 19.9436735,23.6895313 L19.337551,26.251875 C19.3089179,26.3727074 19.3460015,26.4994434 19.4356543,26.5871507 C19.5253072,26.6748579 19.6548546,26.7111368 19.7783673,26.683125 L22.4489796,26.09375 C23.5338244,26.6731317 24.770456,26.9233478 26.0012245,26.8125 C26.1738776,26.8125 26.3428571,26.7729688 26.5081633,26.7442188 L26.4897959,29.6875 Z" id="svg-white" fill="#FFFFFF" fill-rule="nonzero"></path>
                    <path d="M25.0350877,18 C26.4736842,18 26.8947368,18.8476454 26.8947368,19.6204986 L26.8947368,19.7119114 L25.9473684,19.7119114 L25.9473684,19.6454294 C25.9473684,19.0304709 25.6315789,18.6648199 25.0789474,18.6648199 C24.5526316,18.6648199 24.2192982,18.9556787 24.2192982,19.3795014 C24.2192982,19.6454294 24.2982456,19.9279778 24.4561404,20.2354571 L24.7017544,20.700831 L26.1578947,20.700831 L26.1578947,21.265928 L24.9298246,21.265928 C24.9912281,21.398892 25.0175439,21.5734072 25.0175439,21.7479224 C25.0175439,22.2963989 24.7017544,22.6786704 23.9912281,23.1939058 L24.0087719,23.2271468 C24.2280702,23.0941828 24.4473684,23.0360111 24.6491228,23.0360111 C25.0087719,23.0360111 25.4210526,23.2853186 25.745614,23.2853186 C26,23.2853186 26.2982456,23.1274238 26.4035088,23.0692521 L26.6666667,22.9362881 L27,23.5927978 L26.8245614,23.6925208 C26.4385965,23.9085873 26.1666667,24 25.7105263,24 C25.122807,24 24.6666667,23.6759003 24.1842105,23.6759003 C23.9824561,23.6759003 23.7719298,23.7257618 23.3508772,23.933518 L23,23.2936288 C23.7807018,22.7783934 24.0701754,22.2880886 24.0701754,21.8144044 C24.0701754,21.6481994 24.0350877,21.5069252 23.9122807,21.265928 L23.0526316,21.265928 L23.0526316,20.700831 L23.6578947,20.700831 L23.4561404,20.3102493 C23.3245614,20.0526316 23.2192982,19.7867036 23.2192982,19.4875346 C23.2192982,18.7396122 23.8245614,18 25.0350877,18 Z" id="svg-white" stroke="#FFFFFF" stroke-width="0.3" fill="#FFFFFF"></path>
                </g>
            </g>
        </g>
    </g>
</svg>