<?xml version="1.0" encoding="UTF-8"?>
<svg width="45px" height="45px" viewBox="0 0 45 45" version="1.1" xmlns="http://www.w3.org/2000/svg" xmlns:xlink="http://www.w3.org/1999/xlink">
    <!-- Generator: Sketch 54.1 (76490) - https://sketchapp.com -->
    <title>Group 56</title>
    <desc>Created with Sketch.</desc>
    <g id="Page-1" stroke="none" stroke-width="1" fill="none" fill-rule="evenodd">
        <g id="Artboard" transform="translate(-8.000000, -274.000000)">
            <g id="Group-2" transform="translate(8.000000, 274.000000)">
                <g id="Group-3-Copy">
                    <g id="Group-56" transform="translate(0.000000, -0.000000)">
                        <circle id="svg-light" fill-opacity="0.451081" fill="#B3DDEF" fill-rule="nonzero" cx="22.5" cy="22.5" r="22.5"></circle>
                        <path d="M16.2939977,21.078035 C14.356352,20.2774434 13,18.4172454 13,16.2509388 C13,13.3546811 15.4220571,11 18.4011874,11 C21.3803176,11 23.8023747,13.3546811 23.8023747,16.2509388 C23.8023747,16.2744856 23.8023747,16.2980324 23.8023747,16.345126 C20.5810388,16.6512346 17.8198936,18.4878858 16.2939977,21.078035 Z" id="svg-dark" fill="#0066A0" fill-rule="nonzero"></path>
                        <path d="M33,26.0384615 C33,30.4358229 29.3372093,34 24.8181818,34 C20.2991543,34 16.6363636,30.4358229 16.6363636,26.0384615 C16.6363636,21.6411002 20.2991543,18.0769231 24.8181818,18.0769231 C29.3372093,18.0769231 33,21.6411002 33,26.0384615 Z" id="svg-mid" fill="#0294D2" fill-rule="nonzero"></path>
                        <path d="M24.7724147,22.0576923 C26.6679617,22.0576923 27.222756,23.2257184 27.222756,24.2906833 L27.222756,24.4166469 L25.9744689,24.4166469 L25.9744689,24.325037 C25.9744689,23.4776456 25.5583732,22.9737912 24.8302057,22.9737912 C24.1367129,22.9737912 23.6975008,23.3745844 23.6975008,23.9585975 C23.6975008,24.325037 23.8015247,24.714379 24.0095726,25.1380748 L24.3332026,25.779344 L26.251866,25.779344 L26.251866,26.558028 L24.6337161,26.558028 C24.7146236,26.7412478 24.7492982,26.9817237 24.7492982,27.2221997 C24.7492982,27.9779813 24.3332026,28.5047381 23.3969872,29.2147147 L23.4201037,29.2605197 C23.709059,29.0772999 23.9980144,28.9971413 24.2638533,28.9971413 C24.73774,28.9971413 25.2809761,29.3406783 25.70863,29.3406783 C26.0438182,29.3406783 26.4367974,29.1231048 26.575496,29.0429462 L26.9222424,28.8597264 L27.3614545,29.7643741 L27.1302903,29.9017889 C26.6217289,30.199521 26.2634242,30.3254846 25.6623971,30.3254846 C24.8879968,30.3254846 24.2869697,29.8788864 23.6512679,29.8788864 C23.385429,29.8788864 23.1080319,29.9475938 22.5532376,30.2338747 L22.0909091,29.3521296 C23.1195901,28.6421529 23.5010112,27.96653 23.5010112,27.3138096 C23.5010112,27.0847849 23.4547783,26.8901139 23.2929633,26.558028 L22.1602584,26.558028 L22.1602584,25.779344 L22.9577751,25.779344 L22.6919362,25.2411359 C22.518563,24.8861476 22.3798644,24.519708 22.3798644,24.1074635 C22.3798644,23.0768523 23.1773812,22.0576923 24.7724147,22.0576923 Z" id="svg-white" stroke="#FFFFFF" stroke-width="0.5" fill="#FFFFFF"></path>
                    </g>
                </g>
            </g>
        </g>
    </g>
</svg>