<?xml version="1.0" encoding="UTF-8"?>
<svg width="46px" height="46px" viewBox="0 0 46 46" version="1.1" xmlns="http://www.w3.org/2000/svg" xmlns:xlink="http://www.w3.org/1999/xlink">
    <!-- Generator: Sketch 54.1 (76490) - https://sketchapp.com -->
    <title>Group 22</title>
    <desc>Created with Sketch.</desc>
    <g id="Page-1" stroke="none" stroke-width="1" fill="none" fill-rule="evenodd">
        <g id="Artboard" transform="translate(-167.000000, -61.000000)">
            <g id="Group-48" transform="translate(167.000000, 61.000000)">
                <g id="Group-22" transform="translate(0.862951, 0.801463)">
                    <circle id="svg-light" fill="#FFF3E6" fill-rule="nonzero" cx="22.5" cy="22.5" r="22.5"></circle>
                    <path d="M30.7312162,29.6659375 L30.7312162,29.6659375 L28.8841892,26.5729167 C28.6293287,26.1461686 28.2201592,25.8447007 27.7493243,25.7367708 C27.2776361,25.6210192 26.7811404,25.7073178 26.3709459,25.9763542 L24.7352703,27.0520833 L24.7352703,27.0520833 L24.6640541,27.0904167 L24.6227027,27.1191667 C22.9135135,28.2332292 20.3841892,27.315625 18.992027,25.0827083 C17.6641892,22.7946875 17.972027,20.0227083 19.6812162,18.9014583 L19.7248649,18.8727083 C19.7471344,18.8591116 19.7679307,18.8430462 19.7868919,18.8247917 L21.4317568,17.7490625 C22.2828786,17.1946757 22.5429168,16.0262998 22.012973,15.1376042 L20.2210811,12.1811458 L20.1475676,12.0661458 L20.1475676,12.0661458 C19.5091458,11.1635984 18.309878,10.9302028 17.4022973,11.531875 L15.722973,12.6770833 C13.2786486,15.211875 13.6990541,20.7989583 16.7131081,26.0745833 L16.7131081,26.0745833 L17.1472973,26.7933333 L17.1472973,26.7933333 C19.8925676,31.125 23.6486486,33.8227083 26.7040541,33.8227083 C27.2432952,33.8263915 27.779244,33.7348555 28.2891892,33.5519792 L28.3052703,33.5807292 L30.0006757,32.4714583 C30.9124643,31.8811634 31.2314546,30.6561336 30.7312162,29.6659375 Z" id="svg-mid" fill="#FF9220"></path>
                </g>
            </g>
        </g>
    </g>
</svg>