<?xml version="1.0" encoding="UTF-8"?>
<svg width="45px" height="46px" viewBox="0 0 45 46" version="1.1" xmlns="http://www.w3.org/2000/svg" xmlns:xlink="http://www.w3.org/1999/xlink">
    <!-- Generator: Sketch 54.1 (76490) - https://sketchapp.com -->
    <title>Group 33</title>
    <desc>Created with Sketch.</desc>
    <g id="Page-1" stroke="none" stroke-width="1" fill="none" fill-rule="evenodd">
        <g id="Artboard" transform="translate(-114.000000, -8.000000)">
            <g id="Group-33" transform="translate(114.000000, 8.000000)">
                <g id="Group-17" transform="translate(0.000000, 0.798750)">
                    <circle id="svg-light" fill="#FFE1DC" fill-rule="nonzero" cx="22.5" cy="22.5" r="22.5"></circle>
                    <path d="M33.6133333,21.3020833 C33.3548599,21.2454898 33.0856025,21.2604114 32.8351515,21.3452083 C32.3592517,19.6230742 31.3598935,18.0868274 29.9721212,16.9440625 C29.8160074,16.115374 30.0000575,15.2593548 30.4836364,14.565 C30.6119256,14.3537015 30.6054596,14.0882448 30.4670312,13.8832917 C30.3286028,13.6783386 30.0830213,13.570621 29.8363636,13.6066667 C28.2,13.8151042 27.2618182,14.565 26.7357576,15.2502083 C26.1212048,15.079014 25.4895909,14.974577 24.8521212,14.93875 C24.8408335,14.93769 24.8294695,14.93769 24.8181818,14.93875 C25.9746351,18.0977228 24.9374303,21.6332842 22.2505785,23.6910421 C19.5637266,25.7488 15.8405884,25.8590047 13.0339394,23.9638542 C13.0231712,23.9904817 13.0182146,24.0190566 13.0193939,24.0477083 C13.128739,26.3843198 14.1861339,28.5788272 15.9527273,30.1355208 C16.5605391,30.656783 16.9135003,31.4102449 16.9224242,32.2055208 L16.9224242,33.2309375 C16.9224242,33.5458549 17.1807424,33.8011458 17.4993939,33.8011458 L21.0072727,33.8011458 C21.3259243,33.8011458 21.5842424,33.5458549 21.5842424,33.2309375 L21.5842424,32.346875 L21.8266667,32.346875 L24.3721212,32.346875 L24.3721212,33.2261458 C24.3721212,33.5410632 24.6304393,33.7963542 24.9490909,33.7963542 L28.4690909,33.7963542 C28.7877425,33.7963542 29.0460606,33.5410632 29.0460606,33.2261458 L29.0460606,32.4451042 C29.0401364,31.6188683 29.3996378,30.8312828 30.030303,30.2888542 C31.397031,29.1430469 32.3779781,27.6128177 32.8424242,25.9020833 C33.0932416,25.985356 33.3622919,25.9994378 33.6206061,25.9428125 C34.297666,25.7766822 34.769101,25.1707007 34.7575758,24.4813542 L34.7575758,22.7707292 C34.769915,22.0771967 34.2949344,21.4675546 33.6133333,21.3020833 Z" id="svg-mid" fill="#EE3124" fill-rule="nonzero"></path>
                    <path d="M29.2957576,21.4530208 C28.9437529,21.4530208 28.6264088,21.2434632 28.4917024,20.9220643 C28.356996,20.6006654 28.4314555,20.2307192 28.6803604,19.9847312 C28.9292653,19.7387431 29.3035982,19.6651562 29.6288081,19.798284 C29.9540181,19.9314118 30.1660606,20.245037 30.1660606,20.5929167 C30.1673512,20.8218596 30.0762289,21.0418634 29.9128753,21.2042021 C29.7495217,21.3665407 29.5274188,21.4578161 29.2957576,21.4578125 L29.2957576,21.4530208 Z" id="svg-white" fill="#FFFFFF" fill-rule="nonzero"></path>
                    <path d="M17.4436364,23.9375 C21.0020428,23.9374998 23.8868261,21.0868797 23.8872722,17.5701733 C23.8877183,14.0534669 21.0036583,11.2021322 17.4452519,11.2012502 C13.8868456,11.2003682 11.0013388,14.050273 11,17.5669792 C11.0026719,21.0832911 13.8856303,23.9335367 17.4436364,23.9375 Z" id="svg-dark" fill="#B30000" fill-rule="nonzero"></path>
                    <path d="M17.5438596,14 C19.3421053,14 19.8684211,14.9889197 19.8684211,15.8905817 L19.8684211,15.9972299 L18.6842105,15.9972299 L18.6842105,15.9196676 C18.6842105,15.2022161 18.2894737,14.7756233 17.5986842,14.7756233 C16.9407895,14.7756233 16.5241228,15.1149584 16.5241228,15.6094183 C16.5241228,15.9196676 16.622807,16.2493075 16.8201754,16.6080332 L17.127193,17.1509695 L18.9473684,17.1509695 L18.9473684,17.8102493 L17.4122807,17.8102493 C17.4890351,17.965374 17.5219298,18.1689751 17.5219298,18.3725762 C17.5219298,19.0124654 17.127193,19.4584488 16.2390351,20.0595568 L16.2609649,20.098338 C16.5350877,19.9432133 16.8092105,19.8753463 17.0614035,19.8753463 C17.5109649,19.8753463 18.0263158,20.166205 18.4320175,20.166205 C18.75,20.166205 19.122807,19.9819945 19.254386,19.9141274 L19.5833333,19.7590028 L20,20.5249307 L19.7807018,20.6412742 C19.2982456,20.8933518 18.9583333,21 18.3881579,21 C17.6535088,21 17.0833333,20.6218837 16.4802632,20.6218837 C16.2280702,20.6218837 15.9649123,20.6800554 15.4385965,20.9224377 L15,20.1759003 C15.9758772,19.5747922 16.3377193,19.0027701 16.3377193,18.4501385 C16.3377193,18.2562327 16.2938596,18.0914127 16.1403509,17.8102493 L15.0657895,17.8102493 L15.0657895,17.1509695 L15.8223684,17.1509695 L15.5701754,16.6952909 C15.4057018,16.3947368 15.2741228,16.0844875 15.2741228,15.7354571 C15.2741228,14.8628809 16.0307018,14 17.5438596,14 Z" id="svg-white" stroke="#FFFFFF" stroke-width="0.5" fill="#FFFFFF"></path>
                </g>
            </g>
        </g>
    </g>
</svg>