<?xml version="1.0" encoding="UTF-8"?>
<svg width="45px" height="45px" viewBox="0 0 45 45" version="1.1" xmlns="http://www.w3.org/2000/svg" xmlns:xlink="http://www.w3.org/1999/xlink">
    <!-- Generator: Sketch 54.1 (76490) - https://sketchapp.com -->
    <title>Group 51</title>
    <desc>Created with Sketch.</desc>
    <g id="Page-1" stroke="none" stroke-width="1" fill="none" fill-rule="evenodd">
        <g id="Artboard" transform="translate(-8.000000, -221.000000)" fill-rule="nonzero">
            <g id="Group-36" transform="translate(8.000000, 221.000000)">
                <g id="Group-51">
                    <circle id="svg-light" fill-opacity="0.113776" fill="#12CBA3" cx="22.5" cy="22.5" r="22.5"></circle>
                    <rect id="svg-white" fill="#FFFFFF" x="13" y="12" width="19" height="19"></rect>
                    <path d="M30.8023256,11 L14.1293023,11 C12.9544353,11.0026348 12.0026854,11.9364449 12,13.0891667 L12,29.4479167 C12.0026854,30.6006384 12.9544353,31.5344485 14.1293023,31.5370833 L14.3783721,31.5370833 L14.3783721,33.4154167 C14.3783721,33.7382731 14.6451271,34 14.974186,34 L17.0937209,34 C17.4227799,34 17.6895349,33.7382731 17.6895349,33.4154167 L17.6895349,31.5370833 L27.242093,31.5370833 L27.242093,33.4154167 C27.242093,33.7382731 27.508848,34 27.837907,34 L29.9574419,34 C30.2865008,34 30.5532558,33.7382731 30.5532558,33.4154167 L30.5532558,31.5370833 L30.8023256,31.5370833 C31.9771926,31.5344485 32.9289425,30.6006384 32.9316279,29.4479167 L32.9316279,13.0891667 C32.9289425,11.9364449 31.9771926,11.0026348 30.8023256,11 Z M13.5432558,19.5770833 L14.4272093,19.5770833 L14.4272093,22.9791667 L13.5432558,22.9791667 L13.5432558,19.5770833 Z M31.3883721,27.8954167 C31.3883721,29.0704025 30.4175588,30.0229167 29.22,30.0229167 L15.7116279,30.0229167 C14.5140691,30.0229167 13.5432558,29.0704025 13.5432558,27.8954167 L13.5432558,26.4579167 L14.4272093,26.4579167 L14.4272093,27.8954167 C14.4272068,28.2292057 14.5626848,28.5492542 14.8037014,28.7848287 C15.044718,29.0204032 15.3714288,29.1521073 15.7116279,29.1508333 L29.22,29.1508333 C29.5601991,29.1521073 29.8869099,29.0204032 30.1279265,28.7848287 C30.3689431,28.5492542 30.5044211,28.2292057 30.5044186,27.8954167 L30.5044186,14.6416667 C30.4990438,13.950192 29.9247741,13.3931739 29.22,13.3958333 L15.7116279,13.3958333 C15.0068538,13.3931739 14.4325841,13.950192 14.4272093,14.6416667 L14.4272093,16.0791667 L13.5432558,16.0791667 L13.5432558,14.6416667 C13.5432558,13.4666809 14.5140691,12.5141667 15.7116279,12.5141667 L29.22,12.5141667 C29.795088,12.5141667 30.346622,12.7383133 30.7532706,13.137297 C31.1599193,13.5362806 31.3883721,14.0774186 31.3883721,14.6416667 L31.3883721,27.8954167 Z M16.9374419,21.2685417 C16.9354667,19.9284802 17.7569493,18.7193817 19.0184124,18.2056668 C20.2798755,17.6919519 21.7325567,17.9749259 22.6983282,18.9224934 C23.6640998,19.870061 23.9525101,21.2953603 23.428926,22.5330458 C22.905342,23.7707313 21.6730151,24.5767296 20.3072093,24.5747917 C19.4134914,24.5747917 18.5563779,24.2264556 17.9244239,23.6064135 C17.2924699,22.9863713 16.9374419,22.1454137 16.9374419,21.2685417 L16.9374419,21.2685417 Z M27.2518605,25.0108333 L27.2518605,17.52625 C27.2518422,17.3349213 27.4085023,17.1790793 27.6034884,17.1764583 L29.185814,17.1764583 C29.3827099,17.1764583 29.5423256,17.3330654 29.5423256,17.52625 L29.5423256,25.0108333 C29.5423256,25.2040179 29.3827099,25.360625 29.185814,25.360625 L27.6034884,25.360625 C27.4085023,25.3580041 27.2518422,25.202162 27.2518605,25.0108333 L27.2518605,25.0108333 Z" id="svg-mid" fill="#62D2B7"></path>
                </g>
            </g>
        </g>
    </g>
</svg>