<?xml version="1.0" encoding="UTF-8"?>
<svg width="46px" height="46px" viewBox="0 0 46 46" version="1.1" xmlns="http://www.w3.org/2000/svg" xmlns:xlink="http://www.w3.org/1999/xlink">
    <!-- Generator: Sketch 54.1 (76490) - https://sketchapp.com -->
    <title>Group 60</title>
    <desc>Created with Sketch.</desc>
    <g id="Page-1" stroke="none" stroke-width="1" fill="none" fill-rule="evenodd">
        <g id="Artboard" transform="translate(-222.000000, -276.000000)">
            <g id="Group-44" transform="translate(222.000000, 276.000000)">
                <g id="Group-60" transform="translate(0.976424, 0.789276)">
                    <circle id="svg-light" fill="#DDF0F8" fill-rule="nonzero" cx="22.5" cy="22.5" r="22.5"></circle>
                    <path d="M25.8222915,22.0158049 L25.8222915,30.0628937 C25.8222915,30.423142 26.1716949,30.8065768 26.5605937,30.8065768 L30.1059125,30.8065768 C30.4953563,30.8065768 30.7404105,30.4233718 30.7404105,30.0628937 L30.7404105,16.7808585 C30.4148847,17.4843149 30.0309147,18.1404713 29.5883424,18.7449447 C28.6136331,20.0761513 27.3465269,21.175579 25.8222915,22.0158049 Z" id="svg-dark" fill="#0066A0"></path>
                    <path d="M11.4611504,30.0628937 C11.4611504,30.423142 11.7883438,30.8065768 12.1776592,30.8065768 L15.7232535,30.8065768 C16.1117751,30.8065768 16.3794723,30.4233718 16.3794723,30.0628937 L16.3794723,24.0468655 C14.2105703,24.0246386 12.4063098,23.7602783 11.4611504,23.5904193 L11.4611504,30.0628937 L11.4611504,30.0628937 Z" id="svg-dark" fill="#0066A0"></path>
                    <path d="M18.7401469,23.9680177 L18.7401469,30.0628937 C18.7401469,30.423142 18.9795101,30.8065768 19.3696451,30.8065768 L22.9138501,30.8065768 C23.3042092,30.8065768 23.6582906,30.4230051 23.6582906,30.0628937 L23.6582906,22.9764133 C22.8637489,23.2550589 22.0184661,23.4810343 21.1275103,23.6512144 C20.3659237,23.7966919 19.5677081,23.9023568 18.7401469,23.9680177 Z" id="svg-dark" fill="#0066A0"></path>
                    <path d="M22.8193179,17.6713462 C22.8563952,17.6273102 22.8925761,17.5831793 22.9282129,17.5390064 C22.9233927,17.5388888 22.9186703,17.5381554 22.9138501,17.5381554 L19.3697468,17.5381554 C18.9795101,17.5381554 18.7401469,17.914152 18.7401469,18.2737325 L18.7401469,20.4183287 C18.8829627,20.3655883 19.0239925,20.3114231 19.1619891,20.2546207 C20.6677407,19.6344692 21.8982118,18.7653335 22.8193179,17.6713462 Z" id="svg-dark" fill="#0066A0"></path>
                    <path d="M30.7053483,13.0900783 L30.7320379,13.0900783 L32.8320487,13.0900783 L28.0352018,9.21072375 L23.238356,13.0900783 L25.8172225,13.0900783 C25.7825533,13.8001459 25.5241029,16.1764782 23.6582906,18.358984 C22.6091531,19.5861585 21.051839,20.7519394 18.7401469,21.5258823 C17.2479129,22.0254487 15.4412957,22.361632 13.2541784,22.4456228 C12.9003265,22.4592129 12.5368044,22.4664212 12.1626453,22.4664212 C12.1150077,22.4664212 12.0668204,22.4660125 12.0189078,22.4657817 C11.6945545,22.464221 11.3636359,22.4578346 11.0235763,22.4456228 C11.0235763,22.4456228 11.289828,22.5071569 11.7606569,22.5897192 C12.6744802,22.7499808 14.35928,22.9895044 16.3650794,23.0121409 C16.466248,23.0132876 16.5681398,23.0138851 16.6708965,23.0138851 C17.334195,23.0138851 18.0291089,22.989321 18.7401469,22.9298988 C20.3572253,22.7948916 22.0574114,22.4793709 23.6582906,21.8640395 C24.4077231,21.5759799 25.1352101,21.2220041 25.8222914,20.7899849 C28.1788431,19.3083166 30.0588206,16.9080115 30.7053483,13.0900783 Z" id="svg-mid" fill="#0294D2"></path>
                </g>
            </g>
        </g>
    </g>
</svg>