<?xml version="1.0" encoding="UTF-8"?>
<svg width="45px" height="45px" viewBox="0 0 45 45" version="1.1" xmlns="http://www.w3.org/2000/svg" xmlns:xlink="http://www.w3.org/1999/xlink">
    <!-- Generator: Sketch 54.1 (76490) - https://sketchapp.com -->
    <title>Group 14</title>
    <desc>Created with Sketch.</desc>
    <g id="Page-1" stroke="none" stroke-width="1" fill="none" fill-rule="evenodd">
        <g id="Artboard" transform="translate(-8.000000, -168.000000)">
            <g id="Group-14" transform="translate(8.000000, 168.000000)">
                <g id="Group-28" fill-rule="nonzero">
                    <circle id="svg-light" fill="#E4F5E4" cx="22.5" cy="22.5" r="22.5"></circle>
                    <ellipse id="svg-white" fill="#FAFAFA" cx="23" cy="22.5" rx="8" ry="5.5"></ellipse>
                    <path d="M22.4166667,12 C16.672973,12 12,16.672973 12,22.4166667 C12,28.1603604 16.672973,32.8333333 22.4166667,32.8333333 C28.1603604,32.8333333 32.8333333,28.1603604 32.8333333,22.4166667 C32.8333333,16.672973 28.1603604,12 22.4166667,12 Z M28.1905405,20.2943694 L21.5378378,26.9470721 C21.3353604,27.1495495 21.0547297,27.2657658 20.7684685,27.2657658 L20.7684685,27.7162162 L20.7587838,27.2657658 C20.4686937,27.2632883 20.1869369,27.1421171 19.9855856,26.9333333 L16.6292793,23.4545045 C16.2126126,23.0227477 16.225,22.3328829 16.6567568,21.9162162 C16.8605856,21.7193694 17.1288288,21.6112613 17.4119369,21.6112613 C17.7099099,21.6112613 17.9880631,21.7292793 18.195045,21.9436937 L20.7824324,24.6254505 L26.6522523,18.7558559 C26.8576577,18.5504505 27.1308559,18.4371622 27.4216216,18.4371622 C27.7121622,18.4371622 27.9853604,18.5502252 28.1907658,18.7556306 C28.6146396,19.179955 28.6146396,19.8702703 28.1905405,20.2943694 Z" id="svg-mid" fill="#27AE27"></path>
                </g>
                <g id="noun_Check_1905028" transform="translate(12.000000, 12.000000)"></g>
            </g>
        </g>
    </g>
</svg>