<?xml version="1.0" encoding="UTF-8"?>
<svg width="45px" height="45px" viewBox="0 0 45 45" version="1.1" xmlns="http://www.w3.org/2000/svg" xmlns:xlink="http://www.w3.org/1999/xlink">
    <!-- Generator: Sketch 54.1 (76490) - https://sketchapp.com -->
    <title>Group 59</title>
    <desc>Created with Sketch.</desc>
    <g id="Page-1" stroke="none" stroke-width="1" fill="none" fill-rule="evenodd">
        <g id="Artboard" transform="translate(-169.000000, -276.000000)" fill-rule="nonzero">
            <g id="Group-34" transform="translate(169.000000, 276.000000)">
                <g id="Group-59">
                    <circle id="svg-light" fill="#DDF0F8" cx="22.5" cy="22.5" r="22.5"></circle>
                    <ellipse id="svg-white" fill="#FFFFFF" cx="9.5" cy="22.5" rx="3.6" ry="2.7"></ellipse>
                    <path d="M9.5,18 C7.01872432,18 5,20.0187243 5,22.5 C5,24.9812757 7.01872432,27 9.5,27 C11.9812757,27 14,24.9812757 14,22.5 C14,20.0187243 11.9812757,18 9.5,18 Z M11.9943135,21.5831676 L9.12034595,24.4571351 C9.03287568,24.5446054 8.91164324,24.5948108 8.78797838,24.5948108 L8.78797838,24.7894054 L8.78379459,24.5948108 C8.65847568,24.5937405 8.53675676,24.5413946 8.44977297,24.4512 L6.99984865,22.9483459 C6.81984865,22.761827 6.8252,22.4638054 7.01171892,22.2838054 C7.09977297,22.1987676 7.21565405,22.1520649 7.33795676,22.1520649 C7.46668108,22.1520649 7.58684324,22.2030486 7.67625946,22.2956757 L8.79401081,23.4541946 L11.329773,20.9185297 C11.4185081,20.8297946 11.5365297,20.7808541 11.6621405,20.7808541 C11.7876541,20.7808541 11.9056757,20.8296973 11.9944108,20.9184324 C12.1775243,21.1017405 12.1775243,21.3999568 11.9943135,21.5831676 Z" id="svg-mid" fill="#0294D2"></path>
                    <ellipse id="svg-white" fill="#FFFFFF" cx="22.5" cy="22.5" rx="3.6" ry="2.7"></ellipse>
                    <path d="M22.5,18 C20.0187243,18 18,20.0187243 18,22.5 C18,24.9812757 20.0187243,27 22.5,27 C24.9812757,27 27,24.9812757 27,22.5 C27,20.0187243 24.9812757,18 22.5,18 Z M24.9943135,21.5831676 L22.1203459,24.4571351 C22.0328757,24.5446054 21.9116432,24.5948108 21.7879784,24.5948108 L21.7879784,24.7894054 L21.7837946,24.5948108 C21.6584757,24.5937405 21.5367568,24.5413946 21.449773,24.4512 L19.9998486,22.9483459 C19.8198486,22.761827 19.8252,22.4638054 20.0117189,22.2838054 C20.099773,22.1987676 20.2156541,22.1520649 20.3379568,22.1520649 C20.4666811,22.1520649 20.5868432,22.2030486 20.6762595,22.2956757 L21.7940108,23.4541946 L24.329773,20.9185297 C24.4185081,20.8297946 24.5365297,20.7808541 24.6621405,20.7808541 C24.7876541,20.7808541 24.9056757,20.8296973 24.9944108,20.9184324 C25.1775243,21.1017405 25.1775243,21.3999568 24.9943135,21.5831676 Z" id="svg-mid" fill="#0294D2"></path>
                    <ellipse id="svg-white" fill="#FFFFFF" cx="35.5" cy="22.5" rx="3.6" ry="2.7"></ellipse>
                    <path d="M35.5,18 C33.0187243,18 31,20.0187243 31,22.5 C31,24.9812757 33.0187243,27 35.5,27 C37.9812757,27 40,24.9812757 40,22.5 C40,20.0187243 37.9812757,18 35.5,18 Z M37.9943135,21.5831676 L35.1203459,24.4571351 C35.0328757,24.5446054 34.9116432,24.5948108 34.7879784,24.5948108 L34.7879784,24.7894054 L34.7837946,24.5948108 C34.6584757,24.5937405 34.5367568,24.5413946 34.449773,24.4512 L32.9998486,22.9483459 C32.8198486,22.761827 32.8252,22.4638054 33.0117189,22.2838054 C33.099773,22.1987676 33.2156541,22.1520649 33.3379568,22.1520649 C33.4666811,22.1520649 33.5868432,22.2030486 33.6762595,22.2956757 L34.7940108,23.4541946 L37.329773,20.9185297 C37.4185081,20.8297946 37.5365297,20.7808541 37.6621405,20.7808541 C37.7876541,20.7808541 37.9056757,20.8296973 37.9944108,20.9184324 C38.1775243,21.1017405 38.1775243,21.3999568 37.9943135,21.5831676 Z" id="svg-mid" fill="#0294D2"></path>
                </g>
            </g>
        </g>
    </g>
</svg>