<?xml version="1.0" encoding="UTF-8"?>
<svg width="45px" height="45px" viewBox="0 0 45 45" version="1.1" xmlns="http://www.w3.org/2000/svg" xmlns:xlink="http://www.w3.org/1999/xlink">
    <!-- Generator: Sketch 54.1 (76490) - https://sketchapp.com -->
    <title>Group 29</title>
    <desc>Created with Sketch.</desc>
    <g id="Page-1" stroke="none" stroke-width="1" fill="none" fill-rule="evenodd">
        <g id="Artboard" transform="translate(-61.000000, -168.000000)">
            <g id="Group-45" transform="translate(61.000000, 168.000000)">
                <g id="Group-29">
                    <circle id="svg-light" fill-opacity="0.125575" fill="#27AE27" fill-rule="nonzero" cx="22.5" cy="22.5" r="22.5"></circle>
                    <path d="M26.7142857,29.0208333 L26.7142857,31 L11,31 L11,29.0208333 C11,27.1924879 13.4639253,25.6579894 16.8077509,25.2032064 C16.9597401,24.9194098 17.0467006,24.6016608 17.0467006,24.266388 C17.0467006,23.9643589 16.9578218,23.6824952 16.8300665,23.4166091 C15.6946556,22.6359592 14.9285714,21.2349515 14.9285714,19.6197917 C14.9285714,17.1603936 16.6874128,15.1666667 18.8571429,15.1666667 C21.026873,15.1666667 22.7857143,17.1603936 22.7857143,19.6197917 C22.7857143,21.2349515 22.0196301,22.6359592 20.8842192,23.4166091 C20.7564639,23.6824952 20.6675851,23.9643589 20.6675851,24.266388 C20.6675851,24.6016609 20.7545456,24.9194098 20.9065348,25.2032064 C24.2503604,25.6579894 26.7142857,27.1924879 26.7142857,29.0208333 Z" id="svg-dark" fill="#23A423"></path>
                    <path d="M33,21.5 C33,22.0829264 32.5309884,22.5555556 31.952381,22.5555556 L25.6666667,22.5555556 C25.0880592,22.5555556 24.6190476,22.0829264 24.6190476,21.5 L24.6190476,17.2777778 C24.6190476,16.6947869 25.0880592,16.2222222 25.6666667,16.2222222 L25.6666667,15.1666667 C25.6666667,13.4177585 27.0737653,12 28.8095238,12 C30.5452823,12 31.952381,13.4177585 31.952381,15.1666667 L31.952381,16.2222222 C32.5309884,16.2222222 33,16.6947869 33,17.2777778 L33,21.5 Z M28.8095238,18.3333333 C28.2309164,18.3333333 27.7619048,18.8058981 27.7619048,19.3888889 C27.7619048,19.9718153 28.2309164,20.4444444 28.8095238,20.4444444 C29.3881312,20.4444444 29.8571429,19.9718153 29.8571429,19.3888889 C29.8571429,18.8058981 29.3881312,18.3333333 28.8095238,18.3333333 Z M28.8095238,13.0555556 C27.6542271,13.0555556 26.7142857,14.0026177 26.7142857,15.1666667 L26.7142857,16.2222222 L30.9047619,16.2222222 L30.9047619,15.1666667 C30.9047619,14.0026177 29.9648844,13.0555556 28.8095238,13.0555556 Z" id="svg-mid" fill="#3DC33D" fill-rule="nonzero"></path>
                </g>
            </g>
        </g>
    </g>
</svg>