<?xml version="1.0" encoding="UTF-8"?>
<svg width="45px" height="45px" viewBox="0 0 45 45" version="1.1" xmlns="http://www.w3.org/2000/svg" xmlns:xlink="http://www.w3.org/1999/xlink">
    <!-- Generator: Sketch 54.1 (76490) - https://sketchapp.com -->
    <title>Group 19</title>
    <desc>Created with Sketch.</desc>
    <g id="Page-1" stroke="none" stroke-width="1" fill="none" fill-rule="evenodd">
        <g id="Artboard" transform="translate(-8.000000, -62.000000)">
            <g id="Group-16" transform="translate(8.000000, 62.000000)">
                <g id="Group-19">
                    <circle id="svg-light" fill="#FFF3E6" fill-rule="nonzero" cx="22.5" cy="22.5" r="22.5"></circle>
                    <path d="M16.0605,29.92 C15.888,29.74125 15.6075769,29.74125 15.4350769,29.92 L14.2912692,28.73475 C14.4637692,28.556 14.4637692,28.2654167 14.2912692,28.0866667 C14.1187692,27.9079167 13.8383462,27.9079167 13.6658462,28.0866667 L11.012,30.8366667 C10.9031923,30.9494167 10.8589615,31.1116667 10.8943462,31.2656667 C10.9297308,31.4205833 11.0394231,31.54525 11.1853846,31.59475 L13.8392308,32.5114167 C13.8852308,32.5279167 13.9321154,32.53525 13.979,32.53525 C14.094,32.53525 14.2072308,32.4885 14.2921538,32.4014167 L16.0613846,30.5680833 C16.2338846,30.3884167 16.2338846,30.09875 16.0605,29.92 Z" id="svg-dark" fill="#E1801B"></path>
                    <path d="M14.4213077,22.1833333 L14.4213077,22.26675 C14.4213077,24.0551667 13.8277308,25.8096667 12.7485,27.2066667 C12.6078462,27.3890833 12.622,27.6521667 12.7812308,27.8171667 L16.3196923,31.4838333 C16.4055,31.57275 16.5187308,31.6176667 16.6328462,31.6176667 C16.7177692,31.6176667 16.8035769,31.592 16.8778846,31.5406667 L17.498,31.1125833 C18.7559231,30.2435833 20.2199615,29.7843333 21.7308846,29.7843333 L21.7574231,29.7843333 L14.4213077,22.1833333 Z" id="svg-dark" fill="#E1801B"></path>
                    <path d="M32.0447382,12.7745 L30.6532382,11.3325833 C29.9013151,10.5534167 28.6442767,10.4498333 27.7782382,11.1070833 L15.4189539,21.1175697 L23.036377,29.0109863 L32.2650075,15.75 C32.9151998,14.8315 32.8223151,13.58025 32.0447382,12.7745 Z" id="svg-dark" fill="#E1801B"></path>
                    <circle id="svg-light" fill="#FFF3E6" fill-rule="nonzero" cx="26.5" cy="27.5" r="6.5"></circle>
                    <circle id="svg-white" fill="#FFFFFF" fill-rule="nonzero" cx="26.5625" cy="27.625" r="3"></circle>
                    <path d="M26.5,22.625 L26.5,22.625 C23.8075146,22.625 21.625,24.8075146 21.625,27.5 L21.625,27.5 C21.625,30.1924854 23.8075146,32.375 26.5,32.375 L26.5,32.375 C29.1922949,32.375 31.375,30.1924854 31.375,27.5 L31.375,27.5 C31.375,24.8075146 29.1924854,22.625 26.5,22.625 Z M28.1704492,28.4711914 C28.4191504,28.7050391 28.5057959,28.9826855 28.2487158,29.2433838 C27.9916357,29.504082 27.7155127,29.4246729 27.4761426,29.1784473 L26.4843848,28.1577441 C26.1353271,28.529082 25.8310205,28.8568115 25.522334,29.1801611 C25.2848682,29.4290527 25.0045557,29.5021777 24.7505225,29.2407178 C24.4964893,28.9792578 24.5867529,28.7029443 24.8339307,28.4685254 C25.1489014,28.1695508 25.4634912,27.8703857 25.9079541,27.4480127 C25.5255713,27.1242822 25.1807031,26.8416846 24.8484033,26.5457568 C24.5818018,26.3081006 24.482207,26.014458 24.7699463,25.7419531 C25.0365479,25.4902051 25.3119092,25.593418 25.5425195,25.8394531 C25.8390186,26.1557568 26.1339941,26.4732031 26.5020947,26.8677734 C26.8829541,26.4613965 27.186499,26.1311914 27.4963281,25.8063184 C27.7212256,25.570376 27.9914453,25.5115332 28.234624,25.7432861 C28.4989404,25.995415 28.433623,26.2751563 28.1847314,26.5147168 C27.8619531,26.8253076 27.5340332,27.1301855 27.1348926,27.5068555 C27.5176563,27.8618164 27.8453857,28.1649805 28.1704492,28.4711914 Z" id="svg-mid" fill="#FF9220" fill-rule="nonzero"></path>
                </g>
            </g>
        </g>
    </g>
</svg>